<?xml version="1.0" encoding="utf-8"?>
<!-- Generator: Adobe Illustrator 27.5.0, SVG Export Plug-In . SVG Version: 6.00 Build 0)  -->
<svg version="1.1" id="Flag" xmlns="http://www.w3.org/2000/svg" xmlns:xlink="http://www.w3.org/1999/xlink" x="0px" y="0px"
	 viewBox="0 0 1990 1050" style="enable-background:new 0 0 1990 1050;" xml:space="preserve">
<g>
	<g>
		<rect style="fill:#0A650C;" width="846.022" height="1050"/>
	</g>
	<g>
		<rect x="846.022" style="fill:#FC0D1B;" width="1143.978" height="1050"/>
	</g>
	<g>
		<g>
			<g>
				<path style="fill:#FFFD38;" d="M702.949,549.707c0,0-67.131-13.797-73.547-17.937v22.539c0,0,58.584,17.474,73.121,15.634
					L702.949,549.707z"/>
				<path style="fill:#603913;" d="M700.027,571.108L700.027,571.108c-17.676,0-68.715-15.167-70.879-15.811l-0.703-0.209v-25.135
					l1.45,0.937c4.959,3.199,50.075,13.045,73.237,17.808l0.796,0.161l-0.467,22l-0.826,0.105
					C701.876,571.06,701.002,571.108,700.027,571.108z M630.359,553.521c6.315,1.857,53.352,15.529,69.668,15.529l0,0
					c0.557,0,1.08-0.016,1.558-0.048l0.393-18.447c-7.522-1.555-60.662-12.62-71.619-17.185V553.521z"/>
			</g>
			<g>
				<path style="fill:#FFFD38;" d="M628.12,527.173c0,0,30.785,10.578,74.829,17.932v4.601c0,0-66.705-12.415-73.973-15.638
					L628.12,527.173z"/>
				<path style="fill:#603913;" d="M703.909,550.929l-1.121-0.209c-2.728-0.506-66.895-12.471-74.175-15.698l-0.512-0.225
					l-1.128-9.099l1.439,0.494c0.306,0.105,31.233,10.642,74.687,17.9l0.811,0.133V550.929z M629.847,533.322
					c8.572,3.183,63.569,13.552,72.149,15.159v-2.492c-37.915-6.39-66.189-15.228-72.729-17.362L629.847,533.322z"/>
			</g>
			<g>
				<path style="fill:#FFFD38;" d="M628.46,551.838c1.281,0.921,39.862,12.27,74.406,15.839l-0.422,5.397
					c0,0-64.063-10.952-73.043-16.008L628.46,551.838z"/>
				<path style="fill:#603913;" d="M703.311,574.263l-1.016-0.173c-2.623-0.45-64.321-11.036-73.338-16.112l-0.408-0.229
					l-1.465-8.134l1.906,1.366c1.529,0.84,39.406,12.097,73.966,15.67l0.942,0.1L703.311,574.263z M630.25,556.367
					c9.406,4.662,63.226,14.111,71.328,15.513l0.258-3.279c-30.101-3.227-63.977-12.459-72.12-15.208L630.25,556.367z"/>
			</g>
		</g>
		<g>
			<g>
				<path style="fill:#FFFD38;" d="M685.833,683.736c60.644,11.333,83.622,15.24,126.694,19.902l14.234,5.208
					c0,0-49.253,1.527-136.661-18.069L685.833,683.736z"/>
				<path style="fill:#603913;" d="M824.094,709.899c-12.523,0-59.216-1.302-134.183-18.109l-0.389-0.089l-5.691-9.38l2.167,0.402
					c61.903,11.567,84.635,15.344,126.627,19.894l19.473,7.09l-5.306,0.169C826.792,709.875,825.884,709.899,824.094,709.899z
					 M690.688,689.861c69.362,15.521,114.332,17.724,130.301,17.957l-8.767-3.207c-41.35-4.453-64.055-8.199-124.385-19.452
					L690.688,689.861z"/>
			</g>
			<g>
				<path style="fill:#FFFD38;" d="M671.596,663.223c0,0,63.207,13.472,105.629,18.061l37.011,22.659
					c0,0-99.934-10.409-130.113-19.902L671.596,663.223z"/>
				<path style="fill:#603913;" d="M818.6,705.43l-4.458-0.458c-0.998-0.104-100.363-10.53-130.286-19.942l-0.34-0.105
					l-13.954-23.189l2.22,0.474c0.631,0.137,63.648,13.519,105.539,18.053l0.378,0.128L818.6,705.43z M684.735,683.165
					c26.447,8.174,105.401,17.129,125.106,19.275l-32.915-20.151c-37.519-4.083-91.746-15.184-103.305-17.595L684.735,683.165z"/>
			</g>
			<g>
				<path style="fill:#FFFD38;" d="M667.044,658.014c0,0,63.203,13.472,105.625,18.069l0.856,6.125c0,0-73.173-8.576-103.349-18.069
					L667.044,658.014z"/>
				<path style="fill:#603913;" d="M774.65,683.374l-1.233-0.145c-0.732-0.088-73.599-8.697-103.514-18.102l-0.377-0.121
					l-4.312-8.432l2.014,0.434c0.632,0.128,63.648,13.512,105.539,18.045l0.74,0.081L774.65,683.374z M670.818,663.271
					c27.822,8.641,91.877,16.59,101.574,17.764l-0.56-4.011c-37.725-4.156-91.915-15.272-102.968-17.579L670.818,663.271z"/>
			</g>
		</g>
		<g>
			<g>
				<path style="fill:#FFFD38;" d="M654.862,418.767c0,0-12.639,25.366-12.796,28.356c-0.153,2.982,46.406,36.142,46.406,36.142
					s25.437-3.147,25.748-3.979c0.307-0.832-0.31-21.389-0.463-22.221C713.603,456.238,654.862,418.767,654.862,418.767z"/>
				<path style="fill:#603913;" d="M688.237,484.331l-0.292-0.209c-21.45-15.272-46.985-34.105-46.836-37.055
					c0.161-3.062,10.785-24.516,12.911-28.786l0.474-0.947l0.859,0.549c59.104,37.704,59.227,38.387,59.339,38.982
					c0.03,0.157,0.889,21.529,0.415,22.803c-0.254,0.687-0.519,1.398-26.529,4.622L688.237,484.331z M655.239,420.201
					c-4.866,9.8-12.115,25.034-12.216,26.979c1.162,2.564,28.517,22.783,45.684,35.021c8.603-1.069,22.052-2.893,24.645-3.633
					c0.094-2.693-0.318-18.254-0.508-20.987C709.608,455.065,677.328,434.299,655.239,420.201z"/>
			</g>
			<g>
				<path style="fill:#FFFD38;" d="M640.37,453.088c0,0,30.217,27.859,41.319,33.993l10.019-2.822c0,0-38.692-26.694-49.179-37.802
					L640.37,453.088z"/>
				<path style="fill:#603913;" d="M681.577,488.173l-0.325-0.177c-11.073-6.121-40.266-32.987-41.503-34.125l-0.493-0.458
					l2.87-8.83l1.076,1.141c10.292,10.908,48.64,37.401,49.025,37.67l1.839,1.266L681.577,488.173z M641.495,452.766
					c3.924,3.593,29.982,27.313,40.311,33.22l7.56-2.13c-7.597-5.289-36.088-25.336-46.421-35.556L641.495,452.766z"/>
			</g>
		</g>
	</g>
	<g>
		<g>
			<g>
				<path style="fill:#FFFD38;" d="M631.991,650.716l10.184,16.944c0,0,21.812-25.288,86.047-32.851l-10.184-18.246
					C718.039,616.563,670.288,617.865,631.991,650.716z"/>
				<path style="fill:#603913;" d="M642.036,669.324l-11.315-18.833l0.676-0.579c38.11-32.686,86.141-34.362,86.623-34.378
					l0.557-0.016l11.233,20.143l-1.484,0.173c-63.046,7.423-85.236,32.276-85.453,32.525L642.036,669.324z M633.269,650.941
					l9.07,15.095c4.608-4.67,27.676-25.102,84.294-32.071l-9.118-16.349C712.123,617.905,668.55,621.116,633.269,650.941z"/>
			</g>
			<g>
				<path style="fill:#FFFD38;" d="M627.631,647.646l3.031,5.217c0,0,26.357-26.067,88.592-33.695l-3.15-4.952
					C716.103,614.216,665.441,617.411,627.631,647.646z"/>
				<path style="fill:#603913;" d="M630.459,654.461l-4.107-7.073l0.706-0.563c37.609-30.078,88.48-33.603,88.988-33.635
					l0.542-0.036l4.35,6.848l-1.577,0.193c-61.215,7.499-87.793,33.164-88.054,33.422L630.459,654.461z M628.912,647.911l1.977,3.4
					c5.037-4.413,32.033-25.922,86.683-32.963l-1.947-3.063C710.139,615.743,663.905,620.365,628.912,647.911z"/>
			</g>
			<g>
				<path style="fill:#FFFD38;" d="M639.024,667.137l2.784,4.686c0,0,24.119-25.544,88.353-33.1l-2.668-4.955
					C727.494,633.768,676.835,635.854,639.024,667.137z"/>
				<path style="fill:#603913;" d="M641.636,673.447l-3.89-6.551l0.695-0.579c37.616-31.119,88.506-33.558,89.014-33.579l0.576-0.02
					l3.696,6.857l-1.461,0.169c-63.173,7.435-87.546,32.562-87.785,32.811L641.636,673.447z M640.302,667.379l1.708,2.878
					c4.858-4.469,30.351-25.456,86.589-32.385l-1.641-3.043C721.312,635.187,675.21,638.957,640.302,667.379z"/>
			</g>
		</g>
		<g>
			<g>
				<path style="fill:#FFFD38;" d="M603.744,513.838v21.156c0,0,29.077-18.857,99.205-33.574v-20.235
					C702.949,481.184,660.191,485.324,603.744,513.838z"/>
				<path style="fill:#603913;" d="M602.787,536.811v-23.628l0.549-0.277c55.954-28.261,99.101-32.706,99.53-32.747l1.043-0.1
					v22.209l-0.774,0.165c-69.104,14.501-98.607,33.253-98.899,33.442L602.787,536.811z M604.701,514.489v18.753
					c6.693-3.874,36.831-19.902,97.296-32.666V482.33C695.131,483.19,655.254,489.057,604.701,514.489z"/>
			</g>
			<g>
				<path style="fill:#FFFD38;" d="M602.04,511.531v6.438c0,0,39.025-27.819,100.505-35.447l-0.022-6.398
					C702.523,476.125,642.238,483.937,602.04,511.531z"/>
				<path style="fill:#603913;" d="M601.083,519.883v-8.914l0.441-0.306c39.922-27.401,100.278-35.479,100.883-35.56l1.069-0.137
					l0.03,8.472l-0.852,0.105c-60.52,7.511-99.698,35.005-100.087,35.286L601.083,519.883z M602.997,512.094v4.019
					c7.69-5.036,44.66-27.626,98.588-34.507l-0.015-4.308C693.349,478.508,639.622,487.181,602.997,512.094z"/>
			</g>
			<g>
				<path style="fill:#FFFD38;" d="M602.096,535.384v6.438c0,0,38.853-28.446,100.001-34.422l0.426-7.363
					C702.523,500.037,642.291,507.794,602.096,535.384z"/>
				<path style="fill:#603913;" d="M601.139,543.763v-8.946l0.441-0.302c39.918-27.401,100.225-35.419,100.831-35.499l1.14-0.145
					l-0.549,9.469l-0.818,0.08c-60.173,5.884-99.16,33.968-99.549,34.25L601.139,543.763z M603.052,535.951v3.991
					c7.695-5.148,44.507-28.048,98.14-33.486l0.303-5.237C693.038,502.464,639.566,511.109,603.052,535.951z"/>
			</g>
		</g>
		<g>
			<g>
				<path style="fill:#FFFD38;" d="M621.33,430.7c0,0,0-8.082,1.454-11.47c1.454-3.388,2.422-3.91,2.422-3.91
					s23.999-3.127,76.839,26.33l-0.729,6.253c0,0-56.716-27.11-77.078-26.587L621.33,430.7z"/>
				<path style="fill:#603913;" d="M702.104,449.406l-1.177-0.563c-0.553-0.265-55.516-26.421-75.999-26.507l-4.555,14.706V430.7
					c0-0.34,0.019-8.348,1.543-11.9c1.476-3.448,2.563-4.24,2.859-4.401l0.314-0.1c0,0,0.774-0.105,2.351-0.105
					c6.435,0,30.867,1.915,75.046,26.539l0.59,0.33L702.104,449.406z M624.828,420.279c19.372,0,67.34,22.191,75.7,26.13
					l0.486-4.176c-43.42-24.1-67.276-25.981-73.573-25.981c-0.942,0-1.566,0.04-1.883,0.066c-0.228,0.241-0.938,1.087-1.906,3.344
					c-0.284,0.669-0.512,1.551-0.691,2.526l0.583-1.883L624.828,420.279z"/>
			</g>
			<g>
				<path style="fill:#FFFD38;" d="M643.386,383.779l-16.723,32.063c0,0,43.144,6.517,76.107,28.155l-1.211-45.621
					C701.559,398.376,656.233,382.995,643.386,383.779z"/>
				<path style="fill:#603913;" d="M703.775,445.861l-1.502-0.989c-32.411-21.272-75.315-27.948-75.744-28.012l-1.383-0.209
					l17.661-33.868l0.527-0.032c0.333-0.02,0.688-0.03,1.065-0.03c14.043,0,55.685,14.074,57.448,14.673l0.65,0.219L703.775,445.861
					z M628.172,415.052c7.522,1.316,44.358,8.48,73.592,27.092l-1.143-43.005c-5.441-1.821-43.409-14.359-56.223-14.359
					c-0.15,0-0.295,0.002-0.441,0.004L628.172,415.052z"/>
			</g>
			<g>
				<path style="fill:#FFFD38;" d="M642.417,377.521c0,0-3.393,5.474-3.639,6.519c-0.239,1.041-0.482,9.905-0.482,9.905l5.09-10.166
					c0,0,18.419,1.043,57.445,15.901l0.486-5.997C701.316,393.683,667.141,379.607,642.417,377.521z"/>
				<path style="fill:#603913;" d="M701.675,401.092l-1.162-0.442c-34.593-13.172-53.117-15.461-56.582-15.794l-6.711,13.407
					l0.12-4.348c0.041-1.499,0.258-9.031,0.515-10.126c0.254-1.097,2.721-5.146,3.767-6.838l0.31-0.503l0.561,0.048
					c24.578,2.072,58.823,16.086,59.167,16.226l0.673,0.277L701.675,401.092z M642.829,382.718l0.605,0.034
					c0.187,0.01,18.632,1.195,56.551,15.515l0.314-3.894c-4.873-1.951-35.045-13.739-57.396-15.776
					c-1.48,2.412-3.046,5.144-3.195,5.697c-0.089,0.398-0.209,2.602-0.31,5.281L642.829,382.718z"/>
			</g>
		</g>
	</g>
	<g>
		<g>
			<g>
				<path style="fill:#FFFD38;" d="M991.087,549.707c0,0,67.135-13.797,73.547-17.937v22.539c0,0-58.581,17.474-73.118,15.634
					L991.087,549.707z"/>
				<path style="fill:#603913;" d="M994.01,571.108c-0.975,0-1.85-0.048-2.608-0.144l-0.826-0.105l-0.463-22l0.796-0.161
					c23.161-4.762,68.278-14.609,73.233-17.808l1.45-0.937v25.135l-0.703,0.209C1062.725,555.941,1011.689,571.108,994.01,571.108z
					 M992.451,569.002c14.623,1.041,64.694-13.56,71.227-15.481V533.37c-10.953,4.566-64.093,15.63-71.615,17.185L992.451,569.002z"
					/>
			</g>
			<g>
				<path style="fill:#FFFD38;" d="M1065.92,527.173c0,0-30.789,10.578-74.833,17.932v4.601c0,0,66.709-12.415,73.977-15.638
					L1065.92,527.173z"/>
				<path style="fill:#603913;" d="M990.131,550.929v-6.704l0.811-0.133c43.453-7.258,74.38-17.796,74.687-17.9l1.439-0.494
					l-1.128,9.099l-0.512,0.225c-7.279,3.227-71.447,15.192-74.175,15.698L990.131,550.929z M992.044,545.99v2.492
					c8.58-1.607,63.577-11.977,72.15-15.159l0.579-4.694C1058.233,530.762,1029.959,539.6,992.044,545.99z"/>
			</g>
			<g>
				<path style="fill:#FFFD38;" d="M1065.576,551.838c-1.282,0.921-39.862,12.27-74.407,15.839l0.422,5.397
					c0,0,64.066-10.952,73.043-16.008L1065.576,551.838z"/>
				<path style="fill:#603913;" d="M990.725,574.263l-0.587-7.511l0.942-0.1c34.556-3.569,72.441-14.83,74.01-15.698l1.906-1.363
					l-1.51,8.159l-0.407,0.229c-9.018,5.076-70.715,15.662-73.338,16.112L990.725,574.263z M992.201,568.601l0.258,3.279
					c8.102-1.402,61.929-10.851,71.328-15.513l0.534-2.962C1056.249,556.166,1022.986,565.305,992.201,568.601z"/>
			</g>
		</g>
		<g>
			<g>
				<path style="fill:#FFFD38;" d="M1008.206,683.736c-60.644,11.333-83.622,15.24-126.698,19.902l-14.234,5.208
					c0,0,49.253,1.527,136.661-18.069L1008.206,683.736z"/>
				<path style="fill:#603913;" d="M869.946,709.899L869.946,709.899c-1.79,0-2.698-0.024-2.698-0.024l-5.306-0.169l19.26-7.042
					c42.205-4.598,64.937-8.375,126.84-19.942l2.167-0.402l-5.691,9.38l-0.389,0.089
					C929.162,708.597,882.473,709.899,869.946,709.899z M1006.203,685.158c-60.329,11.253-83.039,15.007-124.598,19.508
					l-8.588,3.151c15.938-0.225,60.924-2.428,130.334-17.957L1006.203,685.158z"/>
			</g>
			<g>
				<path style="fill:#FFFD38;" d="M1022.44,663.223c0,0-63.203,13.472-105.625,18.061l-37.015,22.659
					c0,0,99.934-10.409,130.114-19.902L1022.44,663.223z"/>
				<path style="fill:#603913;" d="M875.436,705.43l41.282-25.167c41.891-4.534,104.904-17.917,105.536-18.053l2.216-0.474
					l-13.947,23.189l-0.34,0.105c-29.922,9.412-129.291,19.838-130.289,19.942L875.436,705.43z M917.114,682.289l-32.919,20.151
					c19.705-2.146,98.663-11.1,125.11-19.275l11.11-18.471C1008.857,667.105,954.633,678.206,917.114,682.289z"/>
			</g>
			<g>
				<path style="fill:#FFFD38;" d="M1026.996,658.014c0,0-63.207,13.472-105.629,18.069l-0.852,6.125
					c0,0,73.17-8.576,103.349-18.069L1026.996,658.014z"/>
				<path style="fill:#603913;" d="M919.383,683.374l1.151-8.239l0.74-0.081c41.891-4.533,104.904-17.917,105.535-18.045
					l2.014-0.434l-4.313,8.432l-0.377,0.121c-29.914,9.404-102.781,18.013-103.514,18.102L919.383,683.374z M922.208,677.024
					l-0.56,4.011c9.701-1.174,73.753-9.131,101.57-17.764l1.955-3.826C1014.118,661.752,959.929,672.869,922.208,677.024z"/>
			</g>
		</g>
		<g>
			<g>
				<path style="fill:#FFFD38;" d="M1039.175,418.767c0,0,12.642,25.366,12.795,28.356c0.153,2.982-46.406,36.142-46.406,36.142
					s-25.437-3.147-25.744-3.979c-0.31-0.832,0.307-21.389,0.46-22.221C980.433,456.238,1039.175,418.767,1039.175,418.767z"/>
				<path style="fill:#603913;" d="M1005.8,484.331l-0.344-0.04c-26.005-3.223-26.271-3.93-26.529-4.622
					c-0.504-1.375,0.385-22.643,0.415-22.803c0.112-0.603,0.243-1.278,59.343-38.982l0.859-0.549l0.474,0.947
					c2.126,4.27,12.751,25.723,12.908,28.786c0.15,2.95-25.385,21.783-46.836,37.055L1005.8,484.331z M980.71,478.576
					c2.657,0.739,16.043,2.56,24.619,3.625c17.167-12.238,44.522-32.457,45.718-35.275c-0.131-1.7-7.38-16.926-12.246-26.726
					c-22.093,14.101-54.384,34.872-57.609,37.38C981.009,460.209,980.602,475.529,980.71,478.576z"/>
			</g>
			<g>
				<path style="fill:#FFFD38;" d="M1053.667,453.088c0,0-30.217,27.859-41.32,33.993l-10.019-2.822
					c0,0,38.696-26.694,49.182-37.802L1053.667,453.088z"/>
				<path style="fill:#603913;" d="M1012.459,488.173l-12.485-3.512l1.839-1.266c0.385-0.27,38.73-26.763,49.021-37.67l1.076-1.141
					l2.873,8.83l-0.493,0.458c-1.237,1.138-30.43,28.004-41.506,34.125L1012.459,488.173z M1004.675,483.857l7.556,2.13
					c10.333-5.908,36.387-29.624,40.315-33.22l-1.454-4.469C1040.759,458.521,1012.268,478.568,1004.675,483.857z"/>
			</g>
		</g>
	</g>
	<g>
		<g>
			<path style="fill:#FFFD38;" d="M847.674,267.094c-133.615,0-241.935,116.491-241.935,260.191
				c0,143.702,108.319,260.196,241.935,260.196c133.619,0,241.938-116.494,241.938-260.196
				C1089.612,383.586,981.293,267.094,847.674,267.094z M847.674,759.324c-119.16,0-215.757-103.882-215.757-232.039
				c0-128.151,96.597-232.039,215.757-232.039s215.761,103.888,215.761,232.039C1063.435,655.442,966.834,759.324,847.674,759.324z"
				/>
			<path style="fill:#603913;" d="M847.674,788.51c-133.929,0-242.891-117.185-242.891-261.224
				c0-144.035,108.962-261.22,242.891-261.22c133.933,0,242.895,117.185,242.895,261.22
				C1090.569,671.325,981.607,788.51,847.674,788.51z M847.674,268.123c-132.875,0-240.978,116.26-240.978,259.163
				c0,142.906,108.103,259.167,240.978,259.167c132.879,0,240.982-116.26,240.982-259.167
				C1088.656,384.384,980.553,268.123,847.674,268.123z M847.674,760.353c-119.497,0-216.714-104.549-216.714-233.068
				c0-128.513,97.217-233.068,216.714-233.068s216.718,104.555,216.718,233.068C1064.392,655.804,967.171,760.353,847.674,760.353z
				 M847.674,296.276c-118.443,0-214.801,103.631-214.801,231.01c0,127.385,96.358,231.01,214.801,231.01
				s214.804-103.625,214.804-231.01C1062.478,399.907,966.117,296.276,847.674,296.276z"/>
		</g>
		<g>
			<path style="fill:#FFFD38;" d="M847.674,274.045c-130.046,0-235.474,113.381-235.474,253.241s105.427,253.243,235.474,253.243
				c130.05,0,235.474-113.383,235.474-253.243S977.724,274.045,847.674,274.045z M847.674,764.887
				c-122.015,0-220.929-106.374-220.929-237.601c0-131.221,98.914-237.599,220.929-237.599
				c122.019,0,220.929,106.378,220.929,237.599C1068.603,658.513,969.693,764.887,847.674,764.887z"/>
			<path style="fill:#603913;" d="M847.674,781.557c-130.368,0-236.427-114.066-236.427-254.272
				c0-140.204,106.059-254.27,236.427-254.27s236.43,114.066,236.43,254.27C1084.104,667.491,978.042,781.557,847.674,781.557z
				 M847.674,275.074c-129.31,0-234.513,113.142-234.513,252.212c0,139.072,105.203,252.214,234.513,252.214
				c129.314,0,234.517-113.142,234.517-252.214C1082.191,388.216,976.988,275.074,847.674,275.074z M847.674,765.916
				c-122.348,0-221.886-107.049-221.886-238.63c0-131.579,99.538-238.628,221.886-238.628s221.886,107.049,221.886,238.628
				C1069.56,658.867,970.022,765.916,847.674,765.916z M847.674,290.716c-121.294,0-219.973,106.127-219.973,236.57
				c0,130.448,98.678,236.572,219.973,236.572s219.973-106.125,219.973-236.572C1067.647,396.842,968.969,290.716,847.674,290.716z"
				/>
		</g>
	</g>
	<g>
		<g>
			<g>
				<path style="fill:#FFFD38;" d="M631.991,650.716l10.184,16.944c0,0,21.812-25.288,86.047-32.851l-10.184-18.246
					C718.039,616.563,670.288,617.865,631.991,650.716z"/>
				<path style="fill:#603913;" d="M642.036,669.324l-11.315-18.833l0.676-0.579c38.11-32.686,86.141-34.362,86.623-34.378
					l0.557-0.016l11.233,20.143l-1.484,0.173c-63.046,7.423-85.236,32.276-85.453,32.525L642.036,669.324z M633.269,650.941
					l9.07,15.095c4.608-4.67,27.676-25.102,84.294-32.071l-9.118-16.349C712.123,617.905,668.55,621.116,633.269,650.941z"/>
			</g>
			<g>
				<path style="fill:#FFFD38;" d="M627.631,647.646l3.031,5.217c0,0,26.357-26.067,88.592-33.695l-3.15-4.952
					C716.103,614.216,665.441,617.411,627.631,647.646z"/>
				<path style="fill:#603913;" d="M630.459,654.461l-4.107-7.073l0.706-0.563c37.609-30.078,88.48-33.603,88.988-33.635
					l0.542-0.036l4.35,6.848l-1.577,0.193c-61.215,7.499-87.793,33.164-88.054,33.422L630.459,654.461z M628.912,647.911l1.977,3.4
					c5.037-4.413,32.033-25.922,86.683-32.963l-1.947-3.063C710.139,615.743,663.905,620.365,628.912,647.911z"/>
			</g>
			<g>
				<path style="fill:#FFFD38;" d="M639.024,667.137l2.784,4.686c0,0,24.119-25.544,88.353-33.1l-2.668-4.955
					C727.494,633.768,676.835,635.854,639.024,667.137z"/>
				<path style="fill:#603913;" d="M641.636,673.447l-3.89-6.551l0.695-0.579c37.616-31.119,88.506-33.558,89.014-33.579l0.576-0.02
					l3.696,6.857l-1.461,0.169c-63.173,7.435-87.546,32.562-87.785,32.811L641.636,673.447z M640.302,667.379l1.708,2.878
					c4.858-4.469,30.351-25.456,86.589-32.385l-1.641-3.043C721.312,635.187,675.21,638.957,640.302,667.379z"/>
			</g>
		</g>
		<g>
			<g>
				<path style="fill:#FFFD38;" d="M603.744,513.838v21.156c0,0,29.077-18.857,99.205-33.574v-20.235
					C702.949,481.184,660.191,485.324,603.744,513.838z"/>
				<path style="fill:#603913;" d="M602.787,536.811v-23.628l0.549-0.277c55.954-28.261,99.101-32.706,99.53-32.747l1.043-0.1
					v22.209l-0.774,0.165c-69.104,14.501-98.607,33.253-98.899,33.442L602.787,536.811z M604.701,514.489v18.753
					c6.693-3.874,36.831-19.902,97.296-32.666V482.33C695.131,483.19,655.254,489.057,604.701,514.489z"/>
			</g>
			<g>
				<path style="fill:#FFFD38;" d="M602.04,511.531v6.438c0,0,39.025-27.819,100.505-35.447l-0.022-6.398
					C702.523,476.125,642.238,483.937,602.04,511.531z"/>
				<path style="fill:#603913;" d="M601.083,519.883v-8.914l0.441-0.306c39.922-27.401,100.278-35.479,100.883-35.56l1.069-0.137
					l0.03,8.472l-0.852,0.105c-60.52,7.511-99.698,35.005-100.087,35.286L601.083,519.883z M602.997,512.094v4.019
					c7.69-5.036,44.66-27.626,98.588-34.507l-0.015-4.308C693.349,478.508,639.622,487.181,602.997,512.094z"/>
			</g>
			<g>
				<path style="fill:#FFFD38;" d="M602.096,535.384v6.438c0,0,38.853-28.446,100.001-34.422l0.426-7.363
					C702.523,500.037,642.291,507.794,602.096,535.384z"/>
				<path style="fill:#603913;" d="M601.139,543.763v-8.946l0.441-0.302c39.918-27.401,100.225-35.419,100.831-35.499l1.14-0.145
					l-0.549,9.469l-0.818,0.08c-60.173,5.884-99.16,33.968-99.549,34.25L601.139,543.763z M603.052,535.951v3.991
					c7.695-5.148,44.507-28.048,98.14-33.486l0.303-5.237C693.038,502.464,639.566,511.109,603.052,535.951z"/>
			</g>
		</g>
		<g>
			<g>
				<path style="fill:#FFFD38;" d="M621.33,430.7c0,0,0-8.082,1.454-11.47c1.454-3.388,2.422-3.91,2.422-3.91
					s23.999-3.127,76.839,26.33l-0.729,6.253c0,0-56.716-27.11-77.078-26.587L621.33,430.7z"/>
				<path style="fill:#603913;" d="M702.104,449.406l-1.177-0.563c-0.553-0.265-55.516-26.421-75.999-26.507l-4.555,14.706V430.7
					c0-0.34,0.019-8.348,1.543-11.9c1.476-3.448,2.563-4.24,2.859-4.401l0.314-0.1c0,0,0.774-0.105,2.351-0.105
					c6.435,0,30.867,1.915,75.046,26.539l0.59,0.33L702.104,449.406z M624.828,420.279c19.372,0,67.34,22.191,75.7,26.13
					l0.486-4.176c-43.42-24.1-67.276-25.981-73.573-25.981c-0.942,0-1.566,0.04-1.883,0.066c-0.228,0.241-0.938,1.087-1.906,3.344
					c-0.284,0.669-0.512,1.551-0.691,2.526l0.583-1.883L624.828,420.279z"/>
			</g>
			<g>
				<path style="fill:#FFFD38;" d="M643.386,383.779l-16.723,32.063c0,0,43.144,6.517,76.107,28.155l-1.211-45.621
					C701.559,398.376,656.233,382.995,643.386,383.779z"/>
				<path style="fill:#603913;" d="M703.775,445.861l-1.502-0.989c-32.411-21.272-75.315-27.948-75.744-28.012l-1.383-0.209
					l17.661-33.868l0.527-0.032c0.333-0.02,0.688-0.03,1.065-0.03c14.043,0,55.685,14.074,57.448,14.673l0.65,0.219L703.775,445.861
					z M628.172,415.052c7.522,1.316,44.358,8.48,73.592,27.092l-1.143-43.005c-5.441-1.821-43.409-14.359-56.223-14.359
					c-0.15,0-0.295,0.002-0.441,0.004L628.172,415.052z"/>
			</g>
			<g>
				<path style="fill:#FFFD38;" d="M642.417,377.521c0,0-3.393,5.474-3.639,6.519c-0.239,1.041-0.482,9.905-0.482,9.905l5.09-10.166
					c0,0,18.419,1.043,57.445,15.901l0.486-5.997C701.316,393.683,667.141,379.607,642.417,377.521z"/>
				<path style="fill:#603913;" d="M701.675,401.092l-1.162-0.442c-34.593-13.172-53.117-15.461-56.582-15.794l-6.711,13.407
					l0.12-4.348c0.041-1.499,0.258-9.031,0.515-10.126c0.254-1.097,2.721-5.146,3.767-6.838l0.31-0.503l0.561,0.048
					c24.578,2.072,58.823,16.086,59.167,16.226l0.673,0.277L701.675,401.092z M642.829,382.718l0.605,0.034
					c0.187,0.01,18.632,1.195,56.551,15.515l0.314-3.894c-4.873-1.951-35.045-13.739-57.396-15.776
					c-1.48,2.412-3.046,5.144-3.195,5.697c-0.089,0.398-0.209,2.602-0.31,5.281L642.829,382.718z"/>
			</g>
		</g>
	</g>
	<g>
		<g>
			<g>
				<path style="fill:#FFFD38;" d="M1061.989,650.531l-10.18,16.944c0,0-21.817-25.279-86.047-32.843l10.179-18.246
					C975.941,616.386,1023.692,617.688,1061.989,650.531z"/>
				<path style="fill:#603913;" d="M1051.947,669.147l-0.837-0.972c-0.217-0.249-22.411-25.095-85.453-32.522l-1.484-0.173
					l11.234-20.139l0.557,0.016c0.482,0.012,48.513,1.688,86.623,34.37l0.677,0.579L1051.947,669.147z M967.35,633.788
					c56.615,6.969,79.687,27.401,84.294,32.063l9.07-15.095c-35.296-29.837-78.854-33.036-84.246-33.318L967.35,633.788z"/>
			</g>
			<g>
				<path style="fill:#FFFD38;" d="M1066.354,647.469l-3.031,5.217c0,0-26.361-26.067-88.592-33.695l3.151-4.951
					C977.881,614.039,1028.539,617.23,1066.354,647.469z"/>
				<path style="fill:#603913;" d="M1063.525,654.277l-0.849-0.836c-0.261-0.257-26.91-25.938-88.054-33.426l-1.577-0.193
					l4.35-6.844l0.542,0.032c0.508,0.032,51.38,3.561,88.988,33.639l0.706,0.563L1063.525,654.277z M976.412,618.171
					c54.653,7.037,81.649,28.551,86.686,32.963l1.973-3.4c-34.993-27.55-81.226-32.168-86.712-32.626L976.412,618.171z"/>
			</g>
			<g>
				<path style="fill:#FFFD38;" d="M1054.959,666.953l-2.788,4.694c0,0-24.118-25.544-88.349-33.108l2.664-4.951
					C966.487,633.587,1017.145,635.677,1054.959,666.953z"/>
				<path style="fill:#603913;" d="M1052.344,673.271l-0.841-0.884c-0.243-0.257-24.701-25.392-87.785-32.819l-1.458-0.169
					l3.688-6.86l0.576,0.02c0.508,0.024,51.402,2.459,89.018,33.582l0.695,0.571L1052.344,673.271z M965.384,637.695
					c32.512,4.003,54.41,12.684,67.116,19.315c11.226,5.852,17.347,11.068,19.477,13.054l1.701-2.862
					c-34.899-28.422-81.003-32.192-86.656-32.553L965.384,637.695z"/>
			</g>
		</g>
		<g>
			<g>
				<path style="fill:#FFFD38;" d="M1090.236,513.662v21.152c0,0-29.077-18.853-99.205-33.57v-20.24
					C991.031,481.003,1033.79,485.143,1090.236,513.662z"/>
				<path style="fill:#603913;" d="M1091.193,536.634l-1.45-0.94c-0.292-0.185-29.791-18.938-98.895-33.442l-0.773-0.165v-22.205
					l1.043,0.101c0.43,0.04,43.576,4.481,99.526,32.746l0.55,0.273V536.634z M991.988,500.395
					c60.464,12.768,90.602,28.796,97.292,32.67v-18.752c-50.572-25.448-90.431-31.304-97.292-32.16V500.395z"/>
			</g>
			<g>
				<path style="fill:#FFFD38;" d="M1091.941,511.354v6.439c0,0-39.025-27.819-100.502-35.451l0.019-6.394
					C991.457,475.948,1051.746,483.76,1091.941,511.354z"/>
				<path style="fill:#603913;" d="M1092.897,519.706l-1.484-1.057c-0.388-0.277-39.567-27.775-100.083-35.283l-0.852-0.108
					l0.026-8.468l1.069,0.137c0.605,0.081,60.965,8.155,100.883,35.56l0.441,0.301V519.706z M992.399,481.429
					c53.924,6.881,90.894,29.467,98.585,34.507v-4.019c-36.622-24.918-90.352-33.591-98.574-34.796L992.399,481.429z"/>
			</g>
			<g>
				<path style="fill:#FFFD38;" d="M1091.885,535.203v6.439c0,0-38.85-28.446-99.998-34.423l-0.43-7.359
					C991.457,499.86,1051.69,507.613,1091.885,535.203z"/>
				<path style="fill:#603913;" d="M1092.841,543.586l-1.495-1.093c-0.388-0.281-39.372-28.366-99.545-34.25l-0.818-0.08
					l-0.553-9.469l1.14,0.145c0.605,0.08,60.913,8.094,100.831,35.496l0.441,0.305V543.586z M992.792,506.274
					c53.629,5.442,90.442,28.338,98.136,33.486v-3.991c-36.514-24.841-89.986-33.482-98.443-34.724L992.792,506.274z"/>
			</g>
		</g>
		<g>
			<g>
				<path style="fill:#FFFD38;" d="M1072.654,430.521c0,0,0-8.08-1.487-11.468c-1.487-3.39-2.478-3.91-2.478-3.91
					s-24.537-3.129-78.558,26.33l0.744,6.254c0,0,57.99-27.11,78.805-26.59L1072.654,430.521z"/>
				<path style="fill:#603913;" d="M990.086,449.213l-0.99-8.331l0.602-0.33c45.161-24.622,70.131-26.537,76.709-26.537
					c1.607,0,2.395,0.105,2.395,0.105l0.31,0.096c0.303,0.161,1.409,0.95,2.919,4.395c1.562,3.559,1.581,11.57,1.581,11.91v6.207
					l-4.619-14.571c-20.934,0.07-77.168,26.248-77.736,26.513L990.086,449.213z M991.166,442.06l0.497,4.18
					c8.446-3.89,57.587-26.139,77.411-26.139l1.297,0.024l0.695,2.198c-0.191-1.095-0.441-2.092-0.766-2.833
					c-0.975-2.226-1.696-3.08-1.965-3.349c-0.325-0.026-0.964-0.066-1.928-0.066C1059.964,416.073,1035.565,417.956,991.166,442.06z
					"/>
			</g>
			<g>
				<path style="fill:#FFFD38;" d="M1050.101,383.6l17.101,32.064c0,0-44.111,6.516-77.815,28.153l1.237-45.617
					C990.624,398.199,1036.966,382.818,1050.101,383.6z"/>
				<path style="fill:#603913;" d="M988.382,445.66l1.304-48.229l0.658-0.217c1.854-0.615,46.705-15.39,59.81-14.641l0.519,0.03
					l18.064,33.872l-1.405,0.207c-0.441,0.066-44.313,6.742-77.456,28.018L988.382,445.66z M991.562,398.964l-1.17,43.023
					c29.907-18.64,67.613-25.806,75.285-27.116l-16.144-30.265C1036.962,384.221,997.156,397.132,991.562,398.964z"/>
			</g>
			<g>
				<path style="fill:#FFFD38;" d="M1051.092,377.344c0,0,3.472,5.474,3.718,6.515c0.247,1.045,0.497,9.907,0.497,9.907
					l-5.206-10.166c0,0-18.834,1.043-58.734,15.901l-0.493-5.996C990.875,393.505,1025.815,379.428,1051.092,377.344z"/>
				<path style="fill:#603913;" d="M990.523,400.903l-0.665-8.088l0.68-0.273c0.351-0.143,35.359-14.153,60.479-16.225l0.553-0.046
					l0.314,0.492c1.069,1.69,3.591,5.743,3.853,6.844c0.258,1.065,0.467,8.02,0.527,10.128l0.119,4.262l-6.824-13.323
					c-3.486,0.326-22.433,2.598-57.878,15.798L990.523,400.903z M991.891,394.198l0.321,3.901
					c38.786-14.328,57.654-15.515,57.841-15.525l0.598-0.034l3.558,6.945c-0.109-2.711-0.232-4.955-0.325-5.365
					c-0.153-0.556-1.756-3.292-3.27-5.703C1027.743,380.451,996.85,392.257,991.891,394.198z"/>
			</g>
		</g>
	</g>
	<g>
		<g>
			<rect x="832.644" y="265.711" style="fill:#FFFD38;" width="27.777" height="103.225"/>
			<path style="fill:#603913;" d="M861.378,369.965h-29.69V264.683h29.69V369.965z M833.601,367.908h25.864V266.74h-25.864V367.908z
				"/>
		</g>
		<g>
			<rect x="832.491" y="262.227" style="fill:#FFFD38;" width="6.17" height="108.205"/>
			<path style="fill:#603913;" d="M839.621,371.46h-8.087V261.198h8.087V371.46z M833.447,369.403h4.26V263.256h-4.26V369.403z"/>
		</g>
		<g>
			<rect x="854.606" y="262.227" style="fill:#FFFD38;" width="6.17" height="108.205"/>
			<path style="fill:#603913;" d="M861.736,371.46h-8.087V261.198h8.087V371.46z M855.563,369.403h4.26V263.256h-4.26V369.403z"/>
		</g>
	</g>
	<g>
		<g>
			<rect x="832.644" y="687.088" style="fill:#FFFD38;" width="27.777" height="103.223"/>
			<path style="fill:#603913;" d="M861.378,791.339h-29.69V686.059h29.69V791.339z M833.601,789.282h25.864V688.117h-25.864V789.282
				z"/>
		</g>
		<g>
			<rect x="832.491" y="683.599" style="fill:#FFFD38;" width="6.17" height="108.207"/>
			<path style="fill:#603913;" d="M839.621,792.835h-8.087V682.57h8.087V792.835z M833.447,790.777h4.26V684.628h-4.26V790.777z"/>
		</g>
		<g>
			<rect x="854.606" y="683.599" style="fill:#FFFD38;" width="6.17" height="108.207"/>
			<path style="fill:#603913;" d="M861.736,792.835h-8.087V682.57h8.087V792.835z M855.563,790.777h4.26V684.628h-4.26V790.777z"/>
		</g>
	</g>
	<g>
		<path style="fill:#FFFFFF;" d="M700.453,347.112H990.68v233.534c0,0-7.519,40.443-24.638,63.335
			c-49.694,68.7-119.848,68.7-119.848,68.7s-76.421,0.9-118.178-68.644c-20.882-28.808-25.89-64.287-25.89-64.287L700.453,347.112z"
			/>
		<path style="fill:#603913;" d="M846.052,713.195c-3.147,0-77.546-0.779-118.439-68.885
			c-20.688-28.542-25.908-64.126-25.961-64.488l-1.678-233.224h291.184v234.048c-0.086,0.507-7.747,40.933-24.742,63.656
			c-49.264,68.105-119.519,68.893-120.222,68.893H846.052z M700.938,347.626l1.667,232.115c0.045,0.281,5.232,35.608,25.789,63.974
			c40.636,67.679,114.53,68.451,117.658,68.451h0.138c0.703,0,70.501-0.796,119.474-68.499
			c16.854-22.539,24.469-62.72,24.544-63.122l-0.007-232.919H700.938z"/>
	</g>
	<g>
		<path style="fill:#FB1221;" d="M706.48,353.821h278.176v223.838c0,0-7.205,38.763-23.618,60.702
			c-47.632,65.847-114.871,65.847-114.871,65.847s-73.244,0.86-113.271-65.79c-20.011-27.618-24.813-61.619-24.813-61.619
			L706.48,353.821z"/>
		<path style="fill:#603913;" d="M846.03,704.723c-3.016,0-74.332-0.747-113.536-66.031c-19.832-27.361-24.836-61.478-24.884-61.82
			l-1.611-223.565h279.132v224.352c-0.082,0.491-7.425,39.241-23.718,61.024c-47.221,65.284-114.568,66.039-115.245,66.039H846.03z
			 M706.962,354.336l1.599,222.456c0.041,0.265,5.011,34.121,24.713,61.305c38.946,64.858,109.762,65.597,112.755,65.597h0.135
			c0.673,0,67.568-0.763,114.497-65.646c16.155-21.598,23.449-60.108,23.521-60.494l-0.008-223.219H706.962z"/>
	</g>
	<g>
		<path style="fill:#FFFFFF;" d="M762.523,414.713h166.732v147.164c0,0-4.32,25.484-14.152,39.912
			c-28.55,43.292-68.854,43.292-68.854,43.292s-43.902,0.563-67.893-43.26c-11.991-18.154-14.873-40.511-14.873-40.511
			L762.523,414.713z"/>
		<path style="fill:#603913;" d="M846.168,645.596c-1.812,0-44.675-0.498-68.222-43.509c-11.902-18.013-14.907-40.479-14.937-40.704
			l-0.968-147.185h167.692v147.679c-0.052,0.349-4.462,25.862-14.249,40.217c-28.356,43.003-68.827,43.501-69.235,43.501H846.168z
			 M763.006,415.227l0.957,146.079c0.023,0.157,3.001,22.382,14.784,40.218c23.3,42.553,65.632,43.043,67.422,43.043v0.515
			l0.075-0.515c0.407,0,40.4-0.514,68.469-43.075c9.66-14.171,14.032-39.454,14.073-39.707l-0.008-146.557H763.006z"/>
	</g>
	<g>
		<g>
			<rect x="827.195" y="385.342" style="fill:#FFFD38;" width="38.136" height="21.55"/>
			<path style="fill:#603913;" d="M865.81,407.406h-39.093v-22.578h39.093V407.406z M827.674,406.377h37.179v-20.521h-37.179
				V406.377z"/>
		</g>
		<g>
			<rect x="827.136" y="371.44" style="fill:#FFFD38;" width="11.151" height="15.292"/>
			<path style="fill:#603913;" d="M838.765,387.247h-12.108v-16.323h12.108V387.247z M827.614,386.218h10.195v-14.265h-10.195
				V386.218z"/>
		</g>
		<g>
			<rect x="824.527" y="405.501" style="fill:#FFFD38;" width="43.308" height="5.562"/>
			<path style="fill:#603913;" d="M868.313,411.576h-44.261v-6.589h44.261V411.576z M825.009,410.547h42.348v-4.531h-42.348V410.547
				z"/>
		</g>
		<g>
			<rect x="840.679" y="365.53" style="fill:#FFFD38;" width="11.151" height="21.202"/>
			<path style="fill:#603913;" d="M852.308,387.247h-12.104v-22.231h12.104V387.247z M841.161,386.218h10.19v-20.173h-10.19V386.218
				z"/>
		</g>
		<g>
			<rect x="853.907" y="372.481" style="fill:#FFFD38;" width="11.151" height="14.251"/>
			<path style="fill:#603913;" d="M865.537,387.247h-12.108v-15.28h12.108V387.247z M854.386,386.218h10.194v-13.222h-10.194
				V386.218z"/>
		</g>
		<g>
			<rect x="824.527" y="382.909" style="fill:#FFFD38;" width="43.308" height="4.344"/>
			<path style="fill:#603913;" d="M868.313,387.767h-44.261v-5.373h44.261V387.767z M825.009,386.738h42.348v-3.315h-42.348V386.738
				z"/>
		</g>
		<g>
			<path style="fill:#FFFD38;" d="M856.848,403.851c0-6.384-4.81-11.559-10.744-11.559c-5.938,0-10.747,5.175-10.747,11.559
				c0,0.565,0.082,1.105,0.153,1.65h21.181C856.766,404.957,856.848,404.416,856.848,403.851z"/>
			<path style="fill:#603913;" d="M857.102,406.016h-22.007l-0.086-0.637c-0.063-0.488-0.13-0.995-0.13-1.529
				c0-6.655,5.034-12.071,11.222-12.071c6.188,0,11.226,5.416,11.226,12.071c0,0.557-0.071,1.081-0.142,1.588L857.102,406.016z
				 M835.925,404.987h20.351c0.052-0.384,0.094-0.756,0.094-1.138c0-6.088-4.608-11.042-10.269-11.042
				c-5.662,0-10.265,4.954-10.265,11.042C835.836,404.231,835.876,404.603,835.925,404.987z"/>
		</g>
		<g>
			<path style="fill:#FFFD38;" d="M854.262,403.851c0-4.849-3.655-8.777-8.158-8.777c-4.51,0-8.161,3.929-8.161,8.777
				c0,0.565,0.06,1.113,0.154,1.65h16.013C854.203,404.964,854.262,404.416,854.262,403.851z"/>
			<path style="fill:#603913;" d="M854.505,406.016H837.7l-0.075-0.42c-0.108-0.623-0.161-1.194-0.161-1.747
				c0-5.122,3.875-9.29,8.636-9.29c4.765,0,8.64,4.168,8.64,9.29c0,0.551-0.053,1.124-0.161,1.747L854.505,406.016z M838.5,404.987
				h15.206c0.052-0.4,0.078-0.774,0.078-1.138c0-4.555-3.445-8.261-7.683-8.261c-4.234,0-7.68,3.706-7.68,8.261
				C838.421,404.213,838.448,404.587,838.5,404.987z"/>
		</g>
		<g>
			<polygon style="fill:#FFFD38;" points="839.86,371.786 839.86,366.835 836.59,366.835 836.59,363.967 833.922,363.967 
				833.922,366.704 831.62,366.704 831.62,363.967 829.135,363.967 829.135,366.704 825.559,366.704 825.559,371.722 			"/>
			<path style="fill:#603913;" d="M840.338,372.302l-15.258-0.068v-6.044h3.576v-2.737h3.442v2.737h1.345v-2.737h3.625v2.868h3.27
				V372.302z M826.037,371.209l13.345,0.06v-3.92h-3.27v-2.868h-1.711v2.737h-3.259v-2.737h-1.528v2.737h-3.576V371.209z"/>
		</g>
		<g>
			<polygon style="fill:#FFFD38;" points="853.406,365.335 853.406,360.382 850.133,360.382 850.133,357.515 847.465,357.515 
				847.465,360.252 845.163,360.252 845.163,357.515 842.681,357.515 842.681,360.252 839.105,360.252 839.105,365.269 			"/>
			<path style="fill:#603913;" d="M853.885,365.852l-15.258-0.07v-6.044h3.576V357h3.442v2.737h1.345V357h3.621v2.867h3.273V365.852
				z M839.583,364.757l13.345,0.063v-3.923h-3.273v-2.867h-1.708v2.737h-3.259v-2.737h-1.528v2.737h-3.576V364.757z"/>
		</g>
		<g>
			<polygon style="fill:#FFFD38;" points="866.635,372.178 866.635,367.224 863.362,367.224 863.362,364.357 860.693,364.357 
				860.693,367.096 858.392,367.096 858.392,364.357 855.91,364.357 855.91,367.096 852.334,367.096 852.334,372.111 			"/>
			<path style="fill:#603913;" d="M867.114,372.694l-15.258-0.068v-6.046h3.576v-2.737h3.438v2.737h1.349v-2.737h3.621v2.867h3.274
				V372.694z M852.812,371.601l13.345,0.06v-3.923h-3.274v-2.867h-1.708v2.737h-3.262v-2.737h-1.525v2.737h-3.576V371.601z"/>
		</g>
		<g>
			<rect x="831.844" y="374.264" style="fill:#FFFD38;" width="1.816" height="5.343"/>
			<path style="fill:#603913;" d="M834.139,380.121h-2.777v-6.372h2.777V380.121z M832.319,379.092h0.863v-4.314h-0.863V379.092z"/>
		</g>
		<g>
			<rect x="844.326" y="369.833" style="fill:#FFFD38;" width="3.998" height="4.3"/>
			<path style="fill:#603913;" d="M848.802,374.647h-4.955v-5.331h4.955V374.647z M844.804,373.618h3.042v-3.273h-3.042V373.618z"/>
		</g>
		<g>
			<rect x="858.504" y="374.264" style="fill:#FFFD38;" width="2.182" height="5.343"/>
			<path style="fill:#603913;" d="M861.164,380.121h-3.139v-6.372h3.139V380.121z M858.982,379.092h1.226v-4.314h-1.226V379.092z"/>
		</g>
	</g>
	<g>
		<g>
			<rect x="714.728" y="385.342" style="fill:#FFFD38;" width="38.136" height="21.55"/>
			<path style="fill:#603913;" d="M753.342,407.406H714.25v-22.578h39.092V407.406z M715.206,406.377h37.179v-20.521h-37.179
				V406.377z"/>
		</g>
		<g>
			<rect x="714.668" y="371.44" style="fill:#FFFD38;" width="11.151" height="15.292"/>
			<path style="fill:#603913;" d="M726.298,387.247H714.19v-16.323h12.108V387.247z M715.146,386.218h10.195v-14.265h-10.195
				V386.218z"/>
		</g>
		<g>
			<rect x="712.063" y="405.501" style="fill:#FFFD38;" width="43.304" height="5.562"/>
			<path style="fill:#603913;" d="M755.846,411.576h-44.26v-6.589h44.26V411.576z M712.542,410.547h42.347v-4.531h-42.347V410.547z"
				/>
		</g>
		<g>
			<rect x="728.214" y="365.53" style="fill:#FFFD38;" width="11.147" height="21.202"/>
			<path style="fill:#603913;" d="M739.84,387.247h-12.104v-22.231h12.104V387.247z M728.693,386.218h10.191v-20.173h-10.191
				V386.218z"/>
		</g>
		<g>
			<rect x="741.44" y="372.481" style="fill:#FFFD38;" width="11.151" height="14.251"/>
			<path style="fill:#603913;" d="M753.069,387.247h-12.107v-15.28h12.107V387.247z M741.918,386.218h10.194v-13.222h-10.194
				V386.218z"/>
		</g>
		<g>
			<rect x="712.063" y="382.909" style="fill:#FFFD38;" width="43.304" height="4.344"/>
			<path style="fill:#603913;" d="M755.846,387.767h-44.26v-5.373h44.26V387.767z M712.542,386.738h42.347v-3.315h-42.347V386.738z"
				/>
		</g>
		<g>
			<path style="fill:#FFFD38;" d="M744.38,403.851c0-6.384-4.809-11.559-10.747-11.559c-5.934,0-10.744,5.175-10.744,11.559
				c0,0.565,0.082,1.105,0.157,1.65h21.181C744.299,404.957,744.38,404.416,744.38,403.851z"/>
			<path style="fill:#603913;" d="M744.635,406.016h-22.007l-0.086-0.637c-0.064-0.488-0.131-0.995-0.131-1.529
				c0-6.655,5.034-12.071,11.222-12.071c6.188,0,11.226,5.416,11.226,12.071c0,0.557-0.071,1.081-0.142,1.588L744.635,406.016z
				 M723.458,404.987h20.351c0.052-0.384,0.093-0.756,0.093-1.138c0-6.088-4.608-11.042-10.269-11.042
				c-5.661,0-10.265,4.954-10.265,11.042C723.368,404.231,723.409,404.603,723.458,404.987z"/>
		</g>
		<g>
			<path style="fill:#FFFD38;" d="M741.795,403.851c0-4.849-3.655-8.777-8.162-8.777c-4.503,0-8.158,3.929-8.158,8.777
				c0,0.565,0.06,1.113,0.153,1.65h16.013C741.735,404.964,741.795,404.416,741.795,403.851z"/>
			<path style="fill:#603913;" d="M742.037,406.016h-16.805l-0.075-0.42c-0.108-0.623-0.161-1.194-0.161-1.747
				c0-5.122,3.875-9.29,8.636-9.29c4.765,0,8.64,4.168,8.64,9.29c0,0.551-0.052,1.124-0.161,1.747L742.037,406.016z
				 M726.032,404.987h15.206c0.052-0.4,0.079-0.774,0.079-1.138c0-4.555-3.446-8.261-7.684-8.261c-4.234,0-7.679,3.706-7.679,8.261
				C725.954,404.213,725.98,404.587,726.032,404.987z"/>
		</g>
		<g>
			<polygon style="fill:#FFFD38;" points="727.393,371.786 727.393,366.835 724.123,366.835 724.123,363.967 721.454,363.967 
				721.454,366.704 719.153,366.704 719.153,363.967 716.667,363.967 716.667,366.704 713.091,366.704 713.091,371.722 			"/>
			<path style="fill:#603913;" d="M727.871,372.302l-15.258-0.068v-6.044h3.576v-2.737h3.442v2.737h1.345v-2.737h3.625v2.868h3.27
				V372.302z M713.57,371.209l13.345,0.06v-3.92h-3.27v-2.868h-1.712v2.737h-3.258v-2.737h-1.529v2.737h-3.576V371.209z"/>
		</g>
		<g>
			<polygon style="fill:#FFFD38;" points="740.939,365.335 740.939,360.382 737.666,360.382 737.666,357.515 734.997,357.515 
				734.997,360.252 732.695,360.252 732.695,357.515 730.214,357.515 730.214,360.252 726.638,360.252 726.638,365.269 			"/>
			<path style="fill:#603913;" d="M741.417,365.852l-15.258-0.07v-6.044h3.576V357h3.442v2.737h1.346V357h3.621v2.867h3.273V365.852
				z M727.116,364.757l13.345,0.063v-3.923h-3.273v-2.867h-1.708v2.737h-3.259v-2.737h-1.528v2.737h-3.576V364.757z"/>
		</g>
		<g>
			<polygon style="fill:#FFFD38;" points="754.168,372.178 754.168,367.224 750.894,367.224 750.894,364.357 748.226,364.357 
				748.226,367.096 745.924,367.096 745.924,364.357 743.443,364.357 743.443,367.096 739.866,367.096 739.866,372.111 			"/>
			<path style="fill:#603913;" d="M754.646,372.694l-15.258-0.068v-6.046h3.576v-2.737h3.438v2.737h1.349v-2.737h3.621v2.867h3.274
				V372.694z M740.344,371.601l13.345,0.06v-3.923h-3.274v-2.867h-1.708v2.737h-3.262v-2.737h-1.525v2.737h-3.576V371.601z"/>
		</g>
		<g>
			<rect x="719.373" y="374.264" style="fill:#FFFD38;" width="1.82" height="5.343"/>
			<path style="fill:#603913;" d="M721.671,380.121h-2.777v-6.372h2.777V380.121z M719.851,379.092h0.863v-4.314h-0.863V379.092z"/>
		</g>
		<g>
			<rect x="731.858" y="369.833" style="fill:#FFFD38;" width="3.998" height="4.3"/>
			<path style="fill:#603913;" d="M736.335,374.647h-4.955v-5.331h4.955V374.647z M732.336,373.618h3.042v-3.273h-3.042V373.618z"/>
		</g>
		<g>
			<rect x="746.036" y="374.264" style="fill:#FFFD38;" width="2.182" height="5.343"/>
			<path style="fill:#603913;" d="M748.697,380.121h-3.139v-6.372h3.139V380.121z M746.515,379.092h1.226v-4.314h-1.226V379.092z"/>
		</g>
	</g>
	<g>
		<g>
			<rect x="714.728" y="506.821" style="fill:#FFFD38;" width="38.136" height="21.55"/>
			<path style="fill:#603913;" d="M753.342,528.881H714.25v-22.578h39.092V528.881z M715.206,527.852h37.179v-20.521h-37.179
				V527.852z"/>
		</g>
		<g>
			<rect x="714.668" y="492.915" style="fill:#FFFD38;" width="11.151" height="15.292"/>
			<path style="fill:#603913;" d="M726.298,508.722H714.19v-16.321h12.108V508.722z M715.146,507.693h10.195V493.43h-10.195V507.693
				z"/>
		</g>
		<g>
			<rect x="712.063" y="526.98" style="fill:#FFFD38;" width="43.304" height="5.558"/>
			<path style="fill:#603913;" d="M755.846,533.053h-44.26v-6.591h44.26V533.053z M712.542,532.024h42.347v-4.533h-42.347V532.024z"
				/>
		</g>
		<g>
			<rect x="728.214" y="487.008" style="fill:#FFFD38;" width="11.147" height="21.2"/>
			<path style="fill:#603913;" d="M739.84,508.722h-12.104v-22.229h12.104V508.722z M728.693,507.693h10.191v-20.171h-10.191
				V507.693z"/>
		</g>
		<g>
			<rect x="741.44" y="493.96" style="fill:#FFFD38;" width="11.151" height="14.248"/>
			<path style="fill:#603913;" d="M753.069,508.722h-12.107v-15.276h12.107V508.722z M741.918,507.693h10.194v-13.219h-10.194
				V507.693z"/>
		</g>
		<g>
			<rect x="712.063" y="504.385" style="fill:#FFFD38;" width="43.304" height="4.345"/>
			<path style="fill:#603913;" d="M755.846,509.245h-44.26v-5.374h44.26V509.245z M712.542,508.216h42.347V504.9h-42.347V508.216z"
				/>
		</g>
		<g>
			<path style="fill:#FFFD38;" d="M744.38,525.324c0-6.382-4.809-11.554-10.747-11.554c-5.934,0-10.744,5.173-10.744,11.554
				c0,0.567,0.082,1.109,0.157,1.656h21.181C744.299,526.434,744.38,525.891,744.38,525.324z"/>
			<path style="fill:#603913;" d="M744.635,527.491h-22.007l-0.082-0.631c-0.067-0.491-0.135-0.997-0.135-1.536
				c0-6.655,5.034-12.069,11.222-12.069c6.188,0,11.226,5.413,11.226,12.069c0,0.559-0.075,1.085-0.145,1.596L744.635,527.491z
				 M723.458,526.462h20.355c0.049-0.382,0.09-0.756,0.09-1.138c0-6.085-4.608-11.04-10.269-11.04
				c-5.661,0-10.265,4.955-10.265,11.04C723.368,525.706,723.409,526.08,723.458,526.462z"/>
		</g>
		<g>
			<path style="fill:#FFFD38;" d="M741.795,525.324c0-4.847-3.655-8.777-8.162-8.777c-4.503,0-8.158,3.931-8.158,8.777
				c0,0.567,0.06,1.117,0.153,1.656h16.013C741.735,526.442,741.795,525.891,741.795,525.324z"/>
			<path style="fill:#603913;" d="M742.037,527.491h-16.805l-0.075-0.422c-0.108-0.619-0.161-1.19-0.161-1.745
				c0-5.12,3.875-9.292,8.636-9.292c4.765,0,8.64,4.172,8.64,9.292c0,0.555-0.052,1.126-0.161,1.745L742.037,527.491z
				 M726.032,526.462h15.206c0.052-0.398,0.079-0.772,0.079-1.138c0-4.553-3.446-8.263-7.684-8.263c-4.234,0-7.679,3.71-7.679,8.263
				C725.954,525.69,725.98,526.064,726.032,526.462z"/>
		</g>
		<g>
			<polygon style="fill:#FFFD38;" points="727.393,493.261 727.393,488.31 724.123,488.31 724.123,485.44 721.454,485.44 
				721.454,488.181 719.153,488.181 719.153,485.44 716.667,485.44 716.667,488.181 713.091,488.181 713.091,493.197 			"/>
			<path style="fill:#603913;" d="M727.871,493.78l-15.258-0.068v-6.045h3.576v-2.741h3.442v2.741h1.345v-2.741h3.625v2.87h3.27
				V493.78z M713.57,492.682l13.345,0.064v-3.922h-3.27v-2.87h-1.712v2.741h-3.258v-2.741h-1.529v2.741h-3.576V492.682z"/>
		</g>
		<g>
			<polygon style="fill:#FFFD38;" points="740.939,486.811 740.939,481.855 737.666,481.855 737.666,478.994 734.997,478.994 
				734.997,481.727 732.695,481.727 732.695,478.994 730.214,478.994 730.214,481.727 726.638,481.727 726.638,486.746 			"/>
			<path style="fill:#603913;" d="M741.417,487.329l-15.258-0.072v-6.044h3.576v-2.737h3.442v2.737h1.346v-2.737h3.621v2.866h3.273
				V487.329z M727.116,486.236l13.345,0.056v-3.923h-3.273v-2.866h-1.708v2.737h-3.259v-2.737h-1.528v2.737h-3.576V486.236z"/>
		</g>
		<g>
			<polygon style="fill:#FFFD38;" points="754.168,493.655 754.168,488.704 750.894,488.704 750.894,485.834 748.226,485.834 
				748.226,488.571 745.924,488.571 745.924,485.834 743.443,485.834 743.443,488.571 739.866,488.571 739.866,493.591 			"/>
			<path style="fill:#603913;" d="M754.646,494.169l-15.258-0.068v-6.044h3.576v-2.737h3.438v2.737h1.349v-2.737h3.621v2.87h3.274
				V494.169z M740.344,493.076l13.345,0.06v-3.918h-3.274v-2.87h-1.708v2.737h-3.262v-2.737h-1.525v2.737h-3.576V493.076z"/>
		</g>
		<g>
			<rect x="719.373" y="495.737" style="fill:#FFFD38;" width="1.82" height="5.345"/>
			<path style="fill:#603913;" d="M721.671,501.596h-2.777v-6.374h2.777V501.596z M719.851,500.568h0.863v-4.316h-0.863V500.568z"/>
		</g>
		<g>
			<rect x="731.858" y="491.308" style="fill:#FFFD38;" width="3.998" height="4.3"/>
			<path style="fill:#603913;" d="M736.335,496.122h-4.955v-5.329h4.955V496.122z M732.336,495.094h3.042v-3.271h-3.042V495.094z"/>
		</g>
		<g>
			<rect x="746.036" y="495.737" style="fill:#FFFD38;" width="2.182" height="5.345"/>
			<path style="fill:#603913;" d="M748.697,501.596h-3.139v-6.374h3.139V501.596z M746.515,500.568h1.226v-4.316h-1.226V500.568z"/>
		</g>
	</g>
	<g>
		<g>
			<rect x="938.209" y="385.342" style="fill:#FFFD38;" width="38.136" height="21.55"/>
			<path style="fill:#603913;" d="M976.823,407.406h-39.092v-22.578h39.092V407.406z M938.688,406.377h37.179v-20.521h-37.179
				V406.377z"/>
		</g>
		<g>
			<rect x="938.146" y="371.44" style="fill:#FFFD38;" width="11.151" height="15.292"/>
			<path style="fill:#603913;" d="M949.775,387.247h-12.104v-16.323h12.104V387.247z M938.628,386.218h10.19v-14.265h-10.19V386.218
				z"/>
		</g>
		<g>
			<rect x="935.545" y="405.501" style="fill:#FFFD38;" width="43.304" height="5.562"/>
			<path style="fill:#603913;" d="M979.327,411.576h-44.264v-6.589h44.264V411.576z M936.019,410.547h42.351v-4.531h-42.351V410.547
				z"/>
		</g>
		<g>
			<rect x="951.696" y="365.53" style="fill:#FFFD38;" width="11.147" height="21.202"/>
			<path style="fill:#603913;" d="M963.322,387.247h-12.108v-22.231h12.108V387.247z M952.171,386.218h10.195v-20.173h-10.195
				V386.218z"/>
		</g>
		<g>
			<rect x="964.921" y="372.481" style="fill:#FFFD38;" width="11.151" height="14.251"/>
			<path style="fill:#603913;" d="M976.551,387.247h-12.108v-15.28h12.108V387.247z M965.399,386.218h10.195v-13.222h-10.195
				V386.218z"/>
		</g>
		<g>
			<rect x="935.545" y="382.909" style="fill:#FFFD38;" width="43.304" height="4.344"/>
			<path style="fill:#603913;" d="M979.327,387.767h-44.264v-5.373h44.264V387.767z M936.019,386.738h42.351v-3.315h-42.351V386.738
				z"/>
		</g>
		<g>
			<path style="fill:#FFFD38;" d="M967.862,403.851c0-6.384-4.813-11.559-10.748-11.559c-5.934,0-10.747,5.175-10.747,11.559
				c0,0.565,0.082,1.105,0.157,1.65h21.181C967.78,404.957,967.862,404.416,967.862,403.851z"/>
			<path style="fill:#603913;" d="M968.116,406.016h-22.003l-0.063-0.44c-0.082-0.607-0.157-1.149-0.157-1.726
				c0-6.655,5.034-12.071,11.222-12.071c6.188,0,11.226,5.416,11.226,12.071c0,0.557-0.071,1.081-0.142,1.588L968.116,406.016z
				 M946.939,404.987h20.352c0.052-0.384,0.093-0.756,0.093-1.138c0-6.088-4.608-11.042-10.269-11.042
				c-5.661,0-10.265,4.954-10.265,11.042C946.849,404.231,946.887,404.605,946.939,404.987z"/>
		</g>
		<g>
			<path style="fill:#FFFD38;" d="M965.276,403.851c0-4.849-3.655-8.777-8.161-8.777s-8.161,3.929-8.161,8.777
				c0,0.565,0.06,1.113,0.157,1.65h16.009C965.216,404.964,965.276,404.416,965.276,403.851z"/>
			<path style="fill:#603913;" d="M965.519,406.016h-16.805l-0.075-0.42c-0.109-0.623-0.161-1.196-0.161-1.747
				c0-5.122,3.875-9.29,8.636-9.29c4.765,0,8.64,4.168,8.64,9.29c0,0.553-0.052,1.124-0.161,1.747L965.519,406.016z
				 M949.514,404.987h15.206c0.052-0.4,0.078-0.774,0.078-1.138c0-4.555-3.445-8.261-7.683-8.261c-4.234,0-7.679,3.706-7.679,8.261
				C949.435,404.213,949.461,404.587,949.514,404.987z"/>
		</g>
		<g>
			<polygon style="fill:#FFFD38;" points="950.874,371.786 950.874,366.835 947.6,366.835 947.6,363.967 944.936,363.967 
				944.936,366.704 942.634,366.704 942.634,363.967 940.149,363.967 940.149,366.704 936.572,366.704 936.572,371.722 			"/>
			<path style="fill:#603913;" d="M951.352,372.302l-15.258-0.068v-6.044h3.576v-2.737h3.442v2.737h1.345v-2.737h3.621v2.868h3.274
				V372.302z M937.051,371.209l13.345,0.06v-3.92h-3.274v-2.868h-1.708v2.737h-3.259v-2.737h-1.528v2.737h-3.576V371.209z"/>
		</g>
		<g>
			<polygon style="fill:#FFFD38;" points="964.417,365.335 964.417,360.382 961.147,360.382 961.147,357.515 958.482,357.515 
				958.482,360.252 956.177,360.252 956.177,357.515 953.692,357.515 953.692,360.252 950.119,360.252 950.119,365.269 			"/>
			<path style="fill:#603913;" d="M964.899,365.852l-15.258-0.07v-6.044h3.576V357h3.438v2.737h1.349V357h3.621v2.867h3.274V365.852
				z M950.597,364.757l13.345,0.063v-3.923h-3.274v-2.867h-1.708v2.737h-3.262v-2.737h-1.525v2.737h-3.576V364.757z"/>
		</g>
		<g>
			<polygon style="fill:#FFFD38;" points="977.645,372.178 977.645,367.224 974.376,367.224 974.376,364.357 971.711,364.357 
				971.711,367.096 969.406,367.096 969.406,364.357 966.92,364.357 966.92,367.096 963.348,367.096 963.348,372.111 			"/>
			<path style="fill:#603913;" d="M978.128,372.694l-15.258-0.068v-6.046h3.573v-2.737h3.442v2.737h1.345v-2.737h3.625v2.867h3.273
				V372.694z M963.826,371.601l13.345,0.06v-3.923h-3.273v-2.867h-1.712v2.737h-3.259v-2.737h-1.528v2.737h-3.573V371.601z"/>
		</g>
		<g>
			<rect x="942.854" y="374.264" style="fill:#FFFD38;" width="1.82" height="5.343"/>
			<path style="fill:#603913;" d="M945.153,380.121h-2.777v-6.372h2.777V380.121z M943.333,379.092h0.863v-4.314h-0.863V379.092z"/>
		</g>
		<g>
			<rect x="955.336" y="369.833" style="fill:#FFFD38;" width="3.999" height="4.3"/>
			<path style="fill:#603913;" d="M959.817,374.647h-4.956v-5.331h4.956V374.647z M955.818,373.618h3.042v-3.273h-3.042V373.618z"/>
		</g>
		<g>
			<rect x="969.518" y="374.264" style="fill:#FFFD38;" width="2.179" height="5.343"/>
			<path style="fill:#603913;" d="M972.178,380.121h-3.139v-6.372h3.139V380.121z M969.996,379.092h1.226v-4.314h-1.226V379.092z"/>
		</g>
	</g>
	<g>
		<g>
			<rect x="938.209" y="506.821" style="fill:#FFFD38;" width="38.136" height="21.55"/>
			<path style="fill:#603913;" d="M976.823,528.881h-39.092v-22.578h39.092V528.881z M938.688,527.852h37.179v-20.521h-37.179
				V527.852z"/>
		</g>
		<g>
			<rect x="938.146" y="492.915" style="fill:#FFFD38;" width="11.151" height="15.292"/>
			<path style="fill:#603913;" d="M949.775,508.722h-12.104v-16.321h12.104V508.722z M938.628,507.693h10.19V493.43h-10.19V507.693z
				"/>
		</g>
		<g>
			<rect x="935.545" y="526.98" style="fill:#FFFD38;" width="43.304" height="5.558"/>
			<path style="fill:#603913;" d="M979.327,533.053h-44.264v-6.591h44.264V533.053z M936.019,532.024h42.351v-4.533h-42.351V532.024
				z"/>
		</g>
		<g>
			<rect x="951.696" y="487.008" style="fill:#FFFD38;" width="11.147" height="21.2"/>
			<path style="fill:#603913;" d="M963.322,508.722h-12.108v-22.229h12.108V508.722z M952.171,507.693h10.195v-20.171h-10.195
				V507.693z"/>
		</g>
		<g>
			<rect x="964.921" y="493.96" style="fill:#FFFD38;" width="11.151" height="14.248"/>
			<path style="fill:#603913;" d="M976.551,508.722h-12.108v-15.276h12.108V508.722z M965.399,507.693h10.195v-13.219h-10.195
				V507.693z"/>
		</g>
		<g>
			<rect x="935.545" y="504.385" style="fill:#FFFD38;" width="43.304" height="4.345"/>
			<path style="fill:#603913;" d="M979.327,509.245h-44.264v-5.374h44.264V509.245z M936.019,508.216h42.351V504.9h-42.351V508.216z
				"/>
		</g>
		<g>
			<path style="fill:#FFFD38;" d="M967.862,525.324c0-6.382-4.813-11.554-10.748-11.554c-5.934,0-10.747,5.173-10.747,11.554
				c0,0.567,0.082,1.109,0.157,1.656h21.181C967.78,526.434,967.862,525.891,967.862,525.324z"/>
			<path style="fill:#603913;" d="M968.116,527.491h-22.003l-0.063-0.438c-0.082-0.603-0.157-1.149-0.157-1.729
				c0-6.655,5.034-12.069,11.222-12.069c6.188,0,11.226,5.413,11.226,12.069c0,0.559-0.075,1.085-0.146,1.6L968.116,527.491z
				 M946.939,526.462h20.356c0.049-0.382,0.089-0.756,0.089-1.138c0-6.085-4.608-11.04-10.269-11.04
				c-5.661,0-10.265,4.955-10.265,11.04C946.849,525.71,946.887,526.08,946.939,526.462z"/>
		</g>
		<g>
			<path style="fill:#FFFD38;" d="M965.276,525.324c0-4.847-3.655-8.777-8.161-8.777s-8.161,3.931-8.161,8.777
				c0,0.567,0.06,1.117,0.157,1.656h16.009C965.216,526.442,965.276,525.891,965.276,525.324z"/>
			<path style="fill:#603913;" d="M965.519,527.491h-16.805l-0.075-0.422c-0.109-0.619-0.161-1.19-0.161-1.745
				c0-5.12,3.875-9.292,8.636-9.292c4.765,0,8.64,4.172,8.64,9.292c0,0.555-0.052,1.126-0.161,1.745L965.519,527.491z
				 M949.514,526.462h15.206c0.052-0.398,0.078-0.772,0.078-1.138c0-4.553-3.445-8.263-7.683-8.263c-4.234,0-7.679,3.71-7.679,8.263
				C949.435,525.69,949.461,526.064,949.514,526.462z"/>
		</g>
		<g>
			<polygon style="fill:#FFFD38;" points="950.874,493.261 950.874,488.31 947.6,488.31 947.6,485.44 944.936,485.44 
				944.936,488.181 942.634,488.181 942.634,485.44 940.149,485.44 940.149,488.181 936.572,488.181 936.572,493.197 			"/>
			<path style="fill:#603913;" d="M951.352,493.78l-15.258-0.068v-6.045h3.576v-2.741h3.442v2.741h1.345v-2.741h3.621v2.87h3.274
				V493.78z M937.051,492.682l13.345,0.064v-3.922h-3.274v-2.87h-1.708v2.741h-3.259v-2.741h-1.528v2.741h-3.576V492.682z"/>
		</g>
		<g>
			<polygon style="fill:#FFFD38;" points="964.417,486.811 964.417,481.855 961.147,481.855 961.147,478.994 958.482,478.994 
				958.482,481.727 956.177,481.727 956.177,478.994 953.692,478.994 953.692,481.727 950.119,481.727 950.119,486.746 			"/>
			<path style="fill:#603913;" d="M964.899,487.329l-15.258-0.072v-6.044h3.576v-2.737h3.438v2.737h1.349v-2.737h3.621v2.866h3.274
				V487.329z M950.597,486.236l13.345,0.056v-3.923h-3.274v-2.866h-1.708v2.737h-3.262v-2.737h-1.525v2.737h-3.576V486.236z"/>
		</g>
		<g>
			<polygon style="fill:#FFFD38;" points="977.645,493.655 977.645,488.704 974.376,488.704 974.376,485.834 971.711,485.834 
				971.711,488.571 969.406,488.571 969.406,485.834 966.92,485.834 966.92,488.571 963.348,488.571 963.348,493.591 			"/>
			<path style="fill:#603913;" d="M978.128,494.169l-15.258-0.068v-6.044h3.573v-2.737h3.442v2.737h1.345v-2.737h3.625v2.87h3.273
				V494.169z M963.826,493.076l13.345,0.06v-3.918h-3.273v-2.87h-1.712v2.737h-3.259v-2.737h-1.528v2.737h-3.573V493.076z"/>
		</g>
		<g>
			<rect x="942.854" y="495.737" style="fill:#FFFD38;" width="1.82" height="5.345"/>
			<path style="fill:#603913;" d="M945.153,501.596h-2.777v-6.374h2.777V501.596z M943.333,500.568h0.863v-4.316h-0.863V500.568z"/>
		</g>
		<g>
			<rect x="955.336" y="491.308" style="fill:#FFFD38;" width="3.999" height="4.3"/>
			<path style="fill:#603913;" d="M959.817,496.122h-4.956v-5.329h4.956V496.122z M955.818,495.094h3.042v-3.271h-3.042V495.094z"/>
		</g>
		<g>
			<rect x="969.518" y="495.737" style="fill:#FFFD38;" width="2.179" height="5.345"/>
			<path style="fill:#603913;" d="M972.178,501.596h-3.139v-6.374h3.139V501.596z M969.996,500.568h1.226v-4.316h-1.226V500.568z"/>
		</g>
	</g>
	<g>
		<g>
			<polygon style="fill:#FFFD38;" points="930.182,662.998 903.216,633.997 917.383,618.757 944.349,647.758 			"/>
			<path style="fill:#603913;" d="M930.182,663.729l-0.34-0.362l-27.302-29.37l14.843-15.963l0.34,0.362l27.302,29.362l-0.336,0.37
				L930.182,663.729z M903.893,633.997l26.289,28.278l13.49-14.517l-26.289-28.269L903.893,633.997z"/>
		</g>
		<g>
			<polygon style="fill:#FFFD38;" points="924.312,628.178 916.427,619.698 926.483,608.883 934.368,617.363 			"/>
			<path style="fill:#603913;" d="M924.312,628.901l-8.561-9.203l10.733-11.543l8.561,9.207L924.312,628.901z M917.103,619.698
				l7.208,7.748l9.38-10.084l-7.209-7.753L917.103,619.698z"/>
		</g>
		<g>
			<polygon style="fill:#FFFD38;" points="929.211,667.853 898.586,634.922 902.245,630.987 932.869,663.922 			"/>
			<path style="fill:#603913;" d="M929.211,668.576l-0.34-0.362l-30.957-33.293l4.331-4.662l0.34,0.362l30.957,33.301
				L929.211,668.576z M899.266,634.922l29.944,32.2l2.978-3.199l-29.944-32.208L899.266,634.922z"/>
		</g>
		<g>
			<polygon style="fill:#FFFD38;" points="933.89,638.474 926.004,629.998 939.947,615.004 947.828,623.484 			"/>
			<path style="fill:#603913;" d="M933.89,639.206l-0.34-0.362l-8.221-8.846l14.619-15.718l8.558,9.203L933.89,639.206z
				 M926.681,629.998l7.209,7.753l13.262-14.267l-7.205-7.748L926.681,629.998z"/>
		</g>
		<g>
			<polygon style="fill:#FFFD38;" points="943.243,648.538 935.358,640.058 944.731,629.978 952.612,638.458 			"/>
			<path style="fill:#603913;" d="M943.243,649.261l-0.34-0.362l-8.221-8.842l10.049-10.803l8.557,9.204l-0.336,0.37
				L943.243,649.261z M936.034,640.058l7.209,7.749l8.692-9.348l-7.205-7.749L936.034,640.058z"/>
		</g>
		<g>
			<polygon style="fill:#FFFD38;" points="944.865,651.014 914.244,618.082 917.099,615.012 947.72,647.943 			"/>
			<path style="fill:#603913;" d="M944.865,651.745l-0.34-0.362l-30.957-33.301l3.532-3.798l0.34,0.366l30.957,33.293
				L944.865,651.745z M914.92,618.082l29.944,32.208l2.179-2.347l-29.944-32.204L914.92,618.082z"/>
		</g>
		<g>
			<path style="fill:#FFFD38;" d="M926.184,654.397c4.197-4.517,4.197-11.832,0-16.349c-4.197-4.509-11.002-4.509-15.198,0.008
				c-0.37,0.394-0.669,0.844-0.975,1.278l14.978,16.108C925.395,655.121,925.81,654.799,926.184,654.397z"/>
			<path style="fill:#603913;" d="M924.943,656.125l-0.295-0.313l-15.269-16.43l0.351-0.498c0.277-0.402,0.564-0.812,0.916-1.198
				c2.122-2.275,4.94-3.533,7.941-3.533c2.997,0,5.815,1.258,7.937,3.541c4.372,4.702,4.372,12.362,0,17.065
				c-0.37,0.394-0.766,0.715-1.151,1.021L924.943,656.125z M910.642,639.286l14.391,15.481c0.288-0.233,0.561-0.466,0.811-0.74
				c4.006-4.3,4.006-11.301,0-15.61c-1.936-2.086-4.518-3.235-7.257-3.235c-2.743,0-5.326,1.149-7.261,3.235
				C911.076,638.683,910.859,638.981,910.642,639.286z"/>
		</g>
		<g>
			<path style="fill:#FFFD38;" d="M924.357,652.428c3.184-3.424,3.184-8.978,0-12.41c-3.188-3.424-8.356-3.424-11.544,0
				c-0.37,0.402-0.691,0.836-0.975,1.286l11.323,12.178C923.579,653.175,923.983,652.83,924.357,652.428z"/>
			<path style="fill:#603913;" d="M923.101,654.14l-11.88-12.772l0.221-0.346c0.318-0.514,0.665-0.972,1.031-1.366
				c1.633-1.752,3.804-2.725,6.114-2.725c2.305,0,4.477,0.973,6.11,2.725c3.363,3.625,3.363,9.517,0,13.134
				c-0.366,0.394-0.781,0.763-1.267,1.117L923.101,654.14z M912.462,641.247l10.751,11.559c0.299-0.241,0.564-0.482,0.807-0.74
				c2.989-3.223,2.989-8.464-0.004-11.687c-1.45-1.559-3.378-2.419-5.43-2.419c-2.056,0-3.984,0.86-5.434,2.427
				C912.906,640.644,912.678,640.934,912.462,641.247z"/>
		</g>
		<g>
			<polygon style="fill:#FFFD38;" points="935.253,618.806 938.508,615.301 936.195,612.817 938.079,610.787 936.195,608.758 
				934.394,610.695 932.765,608.943 934.566,607.01 932.809,605.117 931.008,607.054 928.482,604.337 925.182,607.882 			"/>
			<path style="fill:#603913;" d="M935.253,619.537l-10.748-11.655l3.976-4.272l2.53,2.721l1.797-1.937l2.433,2.617l-1.797,1.933
				l0.949,1.025l1.801-1.933l2.56,2.753l-1.883,2.03l2.313,2.484L935.253,619.537z M925.859,607.886l9.395,10.188l2.578-2.773
				l-2.313-2.484l1.883-2.03l-1.207-1.298l-1.801,1.933l-2.302-2.479l1.798-1.933l-1.08-1.162l-1.797,1.937l-2.53-2.721
				L925.859,607.886z"/>
		</g>
		<g>
			<polygon style="fill:#FFFD38;" points="949.073,624.544 952.328,621.04 950.014,618.556 951.898,616.527 950.014,614.497 
				948.213,616.434 946.588,614.682 948.385,612.745 946.629,610.856 944.831,612.793 942.301,610.076 939.002,613.621 			"/>
			<path style="fill:#603913;" d="M949.073,625.276l-10.747-11.655l3.976-4.276l2.53,2.721l1.798-1.933l2.433,2.612l-1.797,1.937
				l0.953,1.025l1.797-1.933l2.564,2.753l-1.887,2.029l2.313,2.484L949.073,625.276z M939.678,613.625l9.394,10.188l2.579-2.773
				l-2.313-2.484l1.887-2.029l-1.211-1.298l-1.797,1.933l-2.306-2.48l1.797-1.937l-1.08-1.157l-1.798,1.933l-2.53-2.721
				L939.678,613.625z"/>
		</g>
		<g>
			<polygon style="fill:#FFFD38;" points="953.927,639.447 957.182,635.942 954.869,633.451 956.756,631.425 954.869,629.399 
				953.071,631.333 951.442,629.584 953.243,627.647 951.483,625.758 949.686,627.695 947.159,624.971 943.856,628.523 			"/>
			<path style="fill:#603913;" d="M953.927,640.17l-0.34-0.362l-10.407-11.289l3.976-4.272l2.53,2.717l1.797-1.937l2.436,2.62
				l-1.801,1.937l0.953,1.021l1.797-1.937l2.564,2.757l-1.887,2.026l2.313,2.492L953.927,640.17z M944.532,628.523l9.395,10.192
				l2.578-2.773l-2.313-2.492l1.887-2.026l-1.211-1.302l-1.797,1.937l-2.306-2.476l1.801-1.937l-1.084-1.165l-1.797,1.937
				l-2.53-2.717L944.532,628.523z"/>
		</g>
		<g>
			<polygon style="fill:#FFFD38;" points="925.724,619.617 924.438,618.235 927.955,614.457 929.241,615.84 			"/>
			<path style="fill:#603913;" d="M925.724,620.349l-1.962-2.11l4.193-4.505l1.962,2.106L925.724,620.349z M925.115,618.239
				l0.609,0.655l2.84-3.055l-0.609-0.651L925.115,618.239z"/>
		</g>
		<g>
			<polygon style="fill:#FFFD38;" points="939.693,626.9 936.868,623.861 939.693,620.819 942.522,623.861 			"/>
			<path style="fill:#603913;" d="M939.693,627.631l-3.502-3.77l3.502-3.77l3.505,3.77L939.693,627.631z M937.544,623.861
				l2.149,2.315l2.152-2.315l-2.152-2.315L937.544,623.861z"/>
		</g>
		<g>
			<polygon style="fill:#FFFD38;" points="944.835,640.17 943.295,638.514 946.808,634.737 948.352,636.392 			"/>
			<path style="fill:#603913;" d="M944.835,640.902l-2.216-2.387l4.189-4.509l2.219,2.387L944.835,640.902z M943.972,638.514
				l0.863,0.933l2.84-3.055l-0.867-0.932L943.972,638.514z"/>
		</g>
	</g>
	<g>
		<g>
			<polygon style="fill:#FFFD38;" points="790.435,632.663 763.465,661.664 749.299,646.424 776.268,617.423 			"/>
			<path style="fill:#603913;" d="M763.469,662.395l-0.34-0.362l-14.507-15.61l0.336-0.362l27.306-29.362l14.847,15.963
				l-0.336,0.362L763.469,662.395z M749.975,646.424l13.494,14.517l26.289-28.277l-13.494-14.509L749.975,646.424z"/>
		</g>
		<g>
			<polygon style="fill:#FFFD38;" points="758.054,638.981 750.169,647.453 740.117,636.642 747.998,628.162 			"/>
			<path style="fill:#603913;" d="M750.169,648.184l-0.34-0.362l-10.389-11.181l8.557-9.204l10.733,11.542L750.169,648.184z
				 M740.793,636.642l9.376,10.087l7.209-7.749l-9.38-10.087L740.793,636.642z"/>
		</g>
		<g>
			<polygon style="fill:#FFFD38;" points="794.945,633.708 764.325,666.639 760.67,662.708 791.291,629.777 			"/>
			<path style="fill:#603913;" d="M764.325,667.371l-4.331-4.662l31.297-33.662l4.331,4.662l-0.336,0.362L764.325,667.371z
				 M761.346,662.708l2.979,3.207l29.944-32.208l-2.978-3.207L761.346,662.708z"/>
		</g>
		<g>
			<polygon style="fill:#FFFD38;" points="767.632,628.676 759.747,637.156 745.808,622.165 753.693,613.685 			"/>
			<path style="fill:#603913;" d="M759.747,637.879l-0.34-0.361l-14.275-15.353l8.561-9.207l14.615,15.718L759.747,637.879z
				 M746.484,622.165l13.263,14.259l7.209-7.748l-13.263-14.263L746.484,622.165z"/>
		</g>
		<g>
			<polygon style="fill:#FFFD38;" points="776.985,618.617 769.101,627.093 759.732,617.021 767.617,608.541 			"/>
			<path style="fill:#603913;" d="M769.104,627.824l-10.049-10.803l8.561-9.212l10.045,10.807L769.104,627.824z M760.408,617.021
				l8.696,9.348l7.205-7.753l-8.692-9.352L760.408,617.021z"/>
		</g>
		<g>
			<polygon style="fill:#FFFD38;" points="779.295,616.873 748.67,649.808 745.815,646.737 776.436,613.802 			"/>
			<path style="fill:#603913;" d="M748.67,650.531l-3.531-3.794l0.336-0.37l30.961-33.293l3.535,3.798l-0.336,0.365L748.67,650.531z
				 M746.492,646.737l2.178,2.339l29.948-32.203l-2.182-2.343L746.492,646.737z"/>
		</g>
		<g>
			<path style="fill:#FFFD38;" d="M782.434,636.963c-4.193-4.509-10.998-4.509-15.195,0c-4.197,4.517-4.197,11.832,0,16.341
				c0.37,0.402,0.784,0.723,1.196,1.053l14.977-16.108C783.107,637.807,782.808,637.365,782.434,636.963z"/>
			<path style="fill:#603913;" d="M768.48,655.041l-0.441-0.354c-0.381-0.305-0.778-0.627-1.14-1.013
				c-4.376-4.71-4.376-12.362,0-17.072c2.123-2.283,4.94-3.537,7.937-3.537s5.815,1.254,7.937,3.537
				c0.374,0.402,0.677,0.844,0.968,1.27l0.243,0.353l-0.235,0.394L768.48,655.041z M774.837,634.094
				c-2.743,0-5.321,1.149-7.257,3.239c-4.006,4.301-4.006,11.309,0,15.61c0.247,0.273,0.52,0.506,0.811,0.74l14.391-15.481
				c-0.232-0.33-0.441-0.611-0.684-0.868C780.158,635.243,777.58,634.094,774.837,634.094z"/>
		</g>
		<g>
			<path style="fill:#FFFD38;" d="M780.607,638.932c-3.188-3.428-8.352-3.428-11.54,0c-3.188,3.424-3.188,8.978,0,12.411
				c0.37,0.402,0.774,0.74,1.196,1.045l11.319-12.169C781.298,639.768,780.977,639.334,780.607,638.932z"/>
			<path style="fill:#603913;" d="M770.323,653.055l-0.325-0.241c-0.493-0.354-0.908-0.716-1.271-1.109
				c-3.367-3.625-3.367-9.517,0-13.142c1.633-1.752,3.804-2.717,6.11-2.717c2.306,0,4.477,0.965,6.106,2.717
				c0.366,0.394,0.706,0.844,1.035,1.366l0.22,0.354l-0.276,0.297L770.323,653.055z M774.837,636.875
				c-2.052,0-3.98,0.86-5.433,2.419c-2.993,3.223-2.993,8.464,0.004,11.679c0.235,0.265,0.5,0.506,0.803,0.747l10.747-11.559
				c-0.224-0.321-0.448-0.611-0.691-0.868C778.817,637.735,776.889,636.875,774.837,636.875z"/>
		</g>
		<g>
			<polygon style="fill:#FFFD38;" points="749.343,627.213 746.084,623.709 743.772,626.196 741.888,624.167 740.001,626.196 
				741.802,628.13 740.173,629.882 738.372,627.949 736.615,629.837 738.416,631.771 735.886,634.492 739.186,638.04 			"/>
			<path style="fill:#603913;" d="M739.186,638.764l-3.976-4.272l2.53-2.721l-1.801-1.933l2.433-2.616l1.801,1.937l0.953-1.029
				l-1.802-1.933l2.564-2.753l1.884,2.026l2.313-2.488l3.935,4.232L739.186,638.764z M736.563,634.492l2.623,2.817l9.481-10.1
				l-2.583-2.773l-2.313,2.488l-1.884-2.026l-1.211,1.298l1.801,1.933l-2.306,2.484l-1.801-1.937l-1.08,1.161l1.801,1.933
				L736.563,634.492z"/>
		</g>
		<g>
			<polygon style="fill:#FFFD38;" points="754.68,612.351 751.421,608.847 749.108,611.334 747.224,609.305 745.337,611.334 
				747.138,613.268 745.509,615.02 743.708,613.083 741.952,614.971 743.753,616.908 741.223,619.63 744.523,623.178 			"/>
			<path style="fill:#603913;" d="M744.523,623.902l-3.976-4.272l2.53-2.721l-1.801-1.933l2.433-2.616l1.801,1.937l0.953-1.029
				l-1.801-1.933l2.563-2.753l1.883,2.026l2.313-2.488l3.935,4.232L744.523,623.902z M741.899,619.63l2.623,2.825l9.481-10.108
				l-2.582-2.773l-2.313,2.488l-1.883-2.026l-1.211,1.298l1.801,1.933l-2.305,2.484l-1.801-1.937l-1.08,1.161l1.801,1.933
				L741.899,619.63z"/>
		</g>
		<g>
			<polygon style="fill:#FFFD38;" points="768.533,607.126 765.274,603.622 762.961,606.114 761.073,604.088 759.19,606.114 
				760.992,608.051 759.362,609.803 757.561,607.866 755.805,609.755 757.606,611.692 755.076,614.409 758.376,617.953 			"/>
			<path style="fill:#603913;" d="M758.376,618.681l-3.976-4.272l2.53-2.717l-1.801-1.937l2.433-2.621l1.801,1.937l0.953-1.021
				l-1.801-1.937l2.563-2.757l1.884,2.029l2.313-2.488l3.935,4.228L758.376,618.681z M755.752,614.409l2.624,2.822l9.481-10.104
				l-2.582-2.773l-2.313,2.488l-1.884-2.03l-1.211,1.302l1.801,1.937l-2.306,2.476l-1.801-1.937l-1.08,1.165l1.801,1.937
				L755.752,614.409z"/>
		</g>
		<g>
			<polygon style="fill:#FFFD38;" points="750.098,637.453 748.813,638.836 745.3,635.058 746.585,633.676 			"/>
			<path style="fill:#603913;" d="M748.813,639.567l-4.189-4.509l1.962-2.106l4.189,4.501L748.813,639.567z M745.976,635.058
				l2.836,3.054l0.609-0.659l-2.836-3.046L745.976,635.058z"/>
		</g>
		<g>
			<polygon style="fill:#FFFD38;" points="756.87,622.43 754.041,625.477 751.212,622.43 754.041,619.392 			"/>
			<path style="fill:#603913;" d="M754.041,626.201l-3.506-3.766l3.506-3.77l3.505,3.77L754.041,626.201z M751.888,622.435
				l2.152,2.311l2.153-2.311l-2.153-2.315L751.888,622.435z"/>
		</g>
		<g>
			<polygon style="fill:#FFFD38;" points="769.209,616.905 767.666,618.564 764.153,614.786 765.696,613.123 			"/>
			<path style="fill:#603913;" d="M767.666,619.288l-4.189-4.501l2.219-2.387l4.189,4.506L767.666,619.288z M764.829,614.786
				l2.836,3.047l0.867-0.928l-2.837-3.05L764.829,614.786z"/>
		</g>
	</g>
	<g>
		<g>
			<path style="fill:#063796;" d="M827.05,502.424h39.167v34.571c0,0-1.016,5.988-3.326,9.376
				c-6.704,10.172-16.174,10.172-16.174,10.172s-10.314,0.128-15.949-10.164c-2.818-4.264-3.494-9.517-3.494-9.517L827.05,502.424z"
				/>
		</g>
		<g>
			<g>
				<path style="fill:#FFFFFF;" d="M850.828,526.434c0,2.25-1.689,4.071-3.782,4.071c-2.089,0-3.781-1.821-3.781-4.071
					c0-2.243,1.693-4.067,3.781-4.067C849.139,522.367,850.828,524.191,850.828,526.434z"/>
			</g>
			<g>
				<path style="fill:#FFFFFF;" d="M840.264,515.494c0,2.242-1.693,4.067-3.786,4.067c-2.089,0-3.782-1.824-3.782-4.067
					c0-2.251,1.693-4.071,3.782-4.071C838.571,511.423,840.264,513.244,840.264,515.494z"/>
			</g>
			<g>
				<path style="fill:#FFFFFF;" d="M840.264,537.518c0,2.251-1.693,4.067-3.786,4.067c-2.089,0-3.782-1.816-3.782-4.067
					c0-2.242,1.693-4.067,3.782-4.067C838.571,533.451,840.264,535.275,840.264,537.518z"/>
			</g>
			<g>
				<path style="fill:#FFFFFF;" d="M861.008,515.494c0,2.242-1.697,4.067-3.786,4.067c-2.089,0-3.782-1.824-3.782-4.067
					c0-2.251,1.693-4.071,3.782-4.071C859.311,511.423,861.008,513.244,861.008,515.494z"/>
			</g>
			<g>
				<path style="fill:#FFFFFF;" d="M861.008,537.518c0,2.251-1.697,4.067-3.786,4.067c-2.089,0-3.782-1.816-3.782-4.067
					c0-2.242,1.693-4.067,3.782-4.067C859.311,533.451,861.008,535.275,861.008,537.518z"/>
			</g>
		</g>
	</g>
	<g>
		<g>
			<path style="fill:#063796;" d="M876.818,502.424h39.167v34.571c0,0-1.013,5.988-3.326,9.376
				c-6.704,10.172-16.173,10.172-16.173,10.172s-10.314,0.128-15.949-10.164c-2.818-4.264-3.494-9.517-3.494-9.517L876.818,502.424z
				"/>
		</g>
		<g>
			<g>
				<path style="fill:#FFFFFF;" d="M900.601,526.434c0,2.25-1.693,4.071-3.786,4.071c-2.085,0-3.782-1.821-3.782-4.071
					c0-2.243,1.697-4.067,3.782-4.067C898.908,522.367,900.601,524.191,900.601,526.434z"/>
			</g>
			<g>
				<path style="fill:#FFFFFF;" d="M890.032,515.494c0,2.242-1.693,4.067-3.781,4.067c-2.089,0-3.786-1.824-3.786-4.067
					c0-2.251,1.697-4.071,3.786-4.071C888.34,511.423,890.032,513.244,890.032,515.494z"/>
			</g>
			<g>
				<path style="fill:#FFFFFF;" d="M890.032,537.518c0,2.251-1.693,4.067-3.781,4.067c-2.089,0-3.786-1.816-3.786-4.067
					c0-2.242,1.697-4.067,3.786-4.067C888.34,533.451,890.032,535.275,890.032,537.518z"/>
			</g>
			<g>
				<path style="fill:#FFFFFF;" d="M910.776,515.494c0,2.242-1.696,4.067-3.781,4.067c-2.093,0-3.786-1.824-3.786-4.067
					c0-2.251,1.693-4.071,3.786-4.071C909.08,511.423,910.776,513.244,910.776,515.494z"/>
			</g>
			<g>
				<path style="fill:#FFFFFF;" d="M910.776,537.518c0,2.251-1.696,4.067-3.781,4.067c-2.093,0-3.786-1.816-3.786-4.067
					c0-2.242,1.693-4.067,3.786-4.067C909.08,533.451,910.776,535.275,910.776,537.518z"/>
			</g>
		</g>
	</g>
	<g>
		<g>
			<path style="fill:#063796;" d="M827.05,435.344h39.167v34.571c0,0-1.016,5.984-3.326,9.376
				c-6.704,10.168-16.174,10.168-16.174,10.168s-10.314,0.137-15.949-10.16c-2.818-4.268-3.494-9.517-3.494-9.517L827.05,435.344z"
				/>
		</g>
		<g>
			<g>
				<path style="fill:#FFFFFF;" d="M850.828,459.357c0,2.243-1.689,4.067-3.782,4.067c-2.089,0-3.781-1.824-3.781-4.067
					c0-2.25,1.693-4.071,3.781-4.071C849.139,455.286,850.828,457.107,850.828,459.357z"/>
			</g>
			<g>
				<path style="fill:#FFFFFF;" d="M840.264,448.41c0,2.251-1.693,4.067-3.786,4.067c-2.089,0-3.782-1.817-3.782-4.067
					c0-2.242,1.693-4.067,3.782-4.067C838.571,444.342,840.264,446.167,840.264,448.41z"/>
			</g>
			<g>
				<path style="fill:#FFFFFF;" d="M840.264,470.437c0,2.247-1.693,4.071-3.786,4.071c-2.089,0-3.782-1.825-3.782-4.071
					c0-2.247,1.693-4.071,3.782-4.071C838.571,466.366,840.264,468.191,840.264,470.437z"/>
			</g>
			<g>
				<path style="fill:#FFFFFF;" d="M861.008,448.41c0,2.251-1.697,4.067-3.786,4.067c-2.089,0-3.782-1.817-3.782-4.067
					c0-2.242,1.693-4.067,3.782-4.067C859.311,444.342,861.008,446.167,861.008,448.41z"/>
			</g>
			<g>
				<path style="fill:#FFFFFF;" d="M861.008,470.437c0,2.247-1.697,4.071-3.786,4.071c-2.089,0-3.782-1.825-3.782-4.071
					c0-2.247,1.693-4.071,3.782-4.071C859.311,466.366,861.008,468.191,861.008,470.437z"/>
			</g>
		</g>
	</g>
	<g>
		<g>
			<path style="fill:#063796;" d="M827.05,570.9h39.167v34.571c0,0-1.016,5.984-3.326,9.372
				c-6.704,10.168-16.174,10.168-16.174,10.168s-10.314,0.137-15.949-10.16c-2.818-4.264-3.494-9.517-3.494-9.517L827.05,570.9z"/>
		</g>
		<g>
			<g>
				<path style="fill:#FFFFFF;" d="M850.828,594.909c0,2.243-1.689,4.067-3.782,4.067c-2.089,0-3.781-1.824-3.781-4.067
					c0-2.25,1.693-4.071,3.781-4.071C849.139,590.838,850.828,592.658,850.828,594.909z"/>
			</g>
			<g>
				<path style="fill:#FFFFFF;" d="M840.264,583.961c0,2.251-1.693,4.071-3.786,4.071c-2.089,0-3.782-1.82-3.782-4.071
					c0-2.242,1.693-4.067,3.782-4.067C838.571,579.894,840.264,581.719,840.264,583.961z"/>
			</g>
			<g>
				<path style="fill:#FFFFFF;" d="M840.264,605.993c0,2.242-1.693,4.067-3.786,4.067c-2.089,0-3.782-1.825-3.782-4.067
					c0-2.251,1.693-4.071,3.782-4.071C838.571,601.922,840.264,603.742,840.264,605.993z"/>
			</g>
			<g>
				<path style="fill:#FFFFFF;" d="M861.008,583.961c0,2.251-1.697,4.071-3.786,4.071c-2.089,0-3.782-1.82-3.782-4.071
					c0-2.242,1.693-4.067,3.782-4.067C859.311,579.894,861.008,581.719,861.008,583.961z"/>
			</g>
			<g>
				<path style="fill:#FFFFFF;" d="M861.008,605.993c0,2.242-1.697,4.067-3.786,4.067c-2.089,0-3.782-1.825-3.782-4.067
					c0-2.251,1.693-4.071,3.782-4.071C859.311,601.922,861.008,603.742,861.008,605.993z"/>
			</g>
		</g>
	</g>
	<g>
		<g>
			<path style="fill:#063796;" d="M775.016,503.469h39.167v34.571c0,0-1.013,5.988-3.326,9.372
				c-6.704,10.172-16.174,10.172-16.174,10.172s-10.314,0.133-15.949-10.164c-2.818-4.26-3.494-9.517-3.494-9.517L775.016,503.469z"
				/>
		</g>
		<g>
			<g>
				<path style="fill:#FFFFFF;" d="M799.12,526.434c0,2.25-1.693,4.071-3.782,4.071s-3.781-1.821-3.781-4.071
					c0-2.243,1.693-4.067,3.781-4.067S799.12,524.191,799.12,526.434z"/>
			</g>
			<g>
				<path style="fill:#FFFFFF;" d="M788.555,515.494c0,2.242-1.697,4.067-3.786,4.067c-2.089,0-3.782-1.824-3.782-4.067
					c0-2.251,1.693-4.071,3.782-4.071C786.859,511.423,788.555,513.244,788.555,515.494z"/>
			</g>
			<g>
				<path style="fill:#FFFFFF;" d="M788.555,537.518c0,2.251-1.697,4.067-3.786,4.067c-2.089,0-3.782-1.816-3.782-4.067
					c0-2.242,1.693-4.067,3.782-4.067C786.859,533.451,788.555,535.275,788.555,537.518z"/>
			</g>
			<g>
				<path style="fill:#FFFFFF;" d="M809.295,515.494c0,2.242-1.693,4.067-3.782,4.067s-3.782-1.824-3.782-4.067
					c0-2.251,1.693-4.071,3.782-4.071S809.295,513.244,809.295,515.494z"/>
			</g>
			<g>
				<path style="fill:#FFFFFF;" d="M809.295,537.518c0,2.251-1.693,4.067-3.782,4.067s-3.782-1.816-3.782-4.067
					c0-2.242,1.693-4.067,3.782-4.067S809.295,535.275,809.295,537.518z"/>
			</g>
		</g>
	</g>
</g>
</svg>
